<?xml version="1.0" encoding="utf-8" standalone="no"?>
<!DOCTYPE svg PUBLIC "-//W3C//DTD SVG 1.1//EN"
  "http://www.w3.org/Graphics/SVG/1.1/DTD/svg11.dtd">
<!-- Created with matplotlib (https://matplotlib.org/) -->
<svg height="345.6pt" version="1.1" viewBox="0 0 460.8 345.6" width="460.8pt" xmlns="http://www.w3.org/2000/svg" xmlns:xlink="http://www.w3.org/1999/xlink">
 <defs>
  <style type="text/css">
*{stroke-linecap:butt;stroke-linejoin:round;}
  </style>
 </defs>
 <g id="figure_1">
  <g id="patch_1">
   <path d="M 0 345.6 
L 460.8 345.6 
L 460.8 0 
L 0 0 
z
" style="fill:#ffffff;"/>
  </g>
  <g id="axes_1">
   <g id="patch_2">
    <path d="M 57.6 307.584 
L 414.72 307.584 
L 414.72 41.472 
L 57.6 41.472 
z
" style="fill:#ffffff;"/>
   </g>
   <g id="matplotlib.axis_1">
    <g id="xtick_1">
     <g id="line2d_1">
      <path clip-path="url(#p7cd856a49d)" d="M 73.832727 307.584 
L 73.832727 41.472 
" style="fill:none;stroke:#b0b0b0;stroke-linecap:square;stroke-width:0.8;"/>
     </g>
     <g id="line2d_2">
      <defs>
       <path d="M 0 0 
L 0 3.5 
" id="mc4f7c1cc6d" style="stroke:#000000;stroke-width:0.8;"/>
      </defs>
      <g>
       <use style="stroke:#000000;stroke-width:0.8;" x="73.832727" xlink:href="#mc4f7c1cc6d" y="307.584"/>
      </g>
     </g>
     <g id="text_1">
      <!-- 0 -->
      <defs>
       <path d="M 31.78125 66.40625 
Q 24.171875 66.40625 20.328125 58.90625 
Q 16.5 51.421875 16.5 36.375 
Q 16.5 21.390625 20.328125 13.890625 
Q 24.171875 6.390625 31.78125 6.390625 
Q 39.453125 6.390625 43.28125 13.890625 
Q 47.125 21.390625 47.125 36.375 
Q 47.125 51.421875 43.28125 58.90625 
Q 39.453125 66.40625 31.78125 66.40625 
z
M 31.78125 74.21875 
Q 44.046875 74.21875 50.515625 64.515625 
Q 56.984375 54.828125 56.984375 36.375 
Q 56.984375 17.96875 50.515625 8.265625 
Q 44.046875 -1.421875 31.78125 -1.421875 
Q 19.53125 -1.421875 13.0625 8.265625 
Q 6.59375 17.96875 6.59375 36.375 
Q 6.59375 54.828125 13.0625 64.515625 
Q 19.53125 74.21875 31.78125 74.21875 
z
" id="DejaVuSans-48"/>
      </defs>
      <g transform="translate(70.651477 322.182437)scale(0.1 -0.1)">
       <use xlink:href="#DejaVuSans-48"/>
      </g>
     </g>
    </g>
    <g id="xtick_2">
     <g id="line2d_3">
      <path clip-path="url(#p7cd856a49d)" d="M 128.122785 307.584 
L 128.122785 41.472 
" style="fill:none;stroke:#b0b0b0;stroke-linecap:square;stroke-width:0.8;"/>
     </g>
     <g id="line2d_4">
      <g>
       <use style="stroke:#000000;stroke-width:0.8;" x="128.122785" xlink:href="#mc4f7c1cc6d" y="307.584"/>
      </g>
     </g>
     <g id="text_2">
      <!-- 50 -->
      <defs>
       <path d="M 10.796875 72.90625 
L 49.515625 72.90625 
L 49.515625 64.59375 
L 19.828125 64.59375 
L 19.828125 46.734375 
Q 21.96875 47.46875 24.109375 47.828125 
Q 26.265625 48.1875 28.421875 48.1875 
Q 40.625 48.1875 47.75 41.5 
Q 54.890625 34.8125 54.890625 23.390625 
Q 54.890625 11.625 47.5625 5.09375 
Q 40.234375 -1.421875 26.90625 -1.421875 
Q 22.3125 -1.421875 17.546875 -0.640625 
Q 12.796875 0.140625 7.71875 1.703125 
L 7.71875 11.625 
Q 12.109375 9.234375 16.796875 8.0625 
Q 21.484375 6.890625 26.703125 6.890625 
Q 35.15625 6.890625 40.078125 11.328125 
Q 45.015625 15.765625 45.015625 23.390625 
Q 45.015625 31 40.078125 35.4375 
Q 35.15625 39.890625 26.703125 39.890625 
Q 22.75 39.890625 18.8125 39.015625 
Q 14.890625 38.140625 10.796875 36.28125 
z
" id="DejaVuSans-53"/>
      </defs>
      <g transform="translate(121.760285 322.182437)scale(0.1 -0.1)">
       <use xlink:href="#DejaVuSans-53"/>
       <use x="63.623047" xlink:href="#DejaVuSans-48"/>
      </g>
     </g>
    </g>
    <g id="xtick_3">
     <g id="line2d_5">
      <path clip-path="url(#p7cd856a49d)" d="M 182.412843 307.584 
L 182.412843 41.472 
" style="fill:none;stroke:#b0b0b0;stroke-linecap:square;stroke-width:0.8;"/>
     </g>
     <g id="line2d_6">
      <g>
       <use style="stroke:#000000;stroke-width:0.8;" x="182.412843" xlink:href="#mc4f7c1cc6d" y="307.584"/>
      </g>
     </g>
     <g id="text_3">
      <!-- 100 -->
      <defs>
       <path d="M 12.40625 8.296875 
L 28.515625 8.296875 
L 28.515625 63.921875 
L 10.984375 60.40625 
L 10.984375 69.390625 
L 28.421875 72.90625 
L 38.28125 72.90625 
L 38.28125 8.296875 
L 54.390625 8.296875 
L 54.390625 0 
L 12.40625 0 
z
" id="DejaVuSans-49"/>
      </defs>
      <g transform="translate(172.869093 322.182437)scale(0.1 -0.1)">
       <use xlink:href="#DejaVuSans-49"/>
       <use x="63.623047" xlink:href="#DejaVuSans-48"/>
       <use x="127.246094" xlink:href="#DejaVuSans-48"/>
      </g>
     </g>
    </g>
    <g id="xtick_4">
     <g id="line2d_7">
      <path clip-path="url(#p7cd856a49d)" d="M 236.702901 307.584 
L 236.702901 41.472 
" style="fill:none;stroke:#b0b0b0;stroke-linecap:square;stroke-width:0.8;"/>
     </g>
     <g id="line2d_8">
      <g>
       <use style="stroke:#000000;stroke-width:0.8;" x="236.702901" xlink:href="#mc4f7c1cc6d" y="307.584"/>
      </g>
     </g>
     <g id="text_4">
      <!-- 150 -->
      <g transform="translate(227.159151 322.182437)scale(0.1 -0.1)">
       <use xlink:href="#DejaVuSans-49"/>
       <use x="63.623047" xlink:href="#DejaVuSans-53"/>
       <use x="127.246094" xlink:href="#DejaVuSans-48"/>
      </g>
     </g>
    </g>
    <g id="xtick_5">
     <g id="line2d_9">
      <path clip-path="url(#p7cd856a49d)" d="M 290.992958 307.584 
L 290.992958 41.472 
" style="fill:none;stroke:#b0b0b0;stroke-linecap:square;stroke-width:0.8;"/>
     </g>
     <g id="line2d_10">
      <g>
       <use style="stroke:#000000;stroke-width:0.8;" x="290.992958" xlink:href="#mc4f7c1cc6d" y="307.584"/>
      </g>
     </g>
     <g id="text_5">
      <!-- 200 -->
      <defs>
       <path d="M 19.1875 8.296875 
L 53.609375 8.296875 
L 53.609375 0 
L 7.328125 0 
L 7.328125 8.296875 
Q 12.9375 14.109375 22.625 23.890625 
Q 32.328125 33.6875 34.8125 36.53125 
Q 39.546875 41.84375 41.421875 45.53125 
Q 43.3125 49.21875 43.3125 52.78125 
Q 43.3125 58.59375 39.234375 62.25 
Q 35.15625 65.921875 28.609375 65.921875 
Q 23.96875 65.921875 18.8125 64.3125 
Q 13.671875 62.703125 7.8125 59.421875 
L 7.8125 69.390625 
Q 13.765625 71.78125 18.9375 73 
Q 24.125 74.21875 28.421875 74.21875 
Q 39.75 74.21875 46.484375 68.546875 
Q 53.21875 62.890625 53.21875 53.421875 
Q 53.21875 48.921875 51.53125 44.890625 
Q 49.859375 40.875 45.40625 35.40625 
Q 44.1875 33.984375 37.640625 27.21875 
Q 31.109375 20.453125 19.1875 8.296875 
z
" id="DejaVuSans-50"/>
      </defs>
      <g transform="translate(281.449208 322.182437)scale(0.1 -0.1)">
       <use xlink:href="#DejaVuSans-50"/>
       <use x="63.623047" xlink:href="#DejaVuSans-48"/>
       <use x="127.246094" xlink:href="#DejaVuSans-48"/>
      </g>
     </g>
    </g>
    <g id="xtick_6">
     <g id="line2d_11">
      <path clip-path="url(#p7cd856a49d)" d="M 345.283016 307.584 
L 345.283016 41.472 
" style="fill:none;stroke:#b0b0b0;stroke-linecap:square;stroke-width:0.8;"/>
     </g>
     <g id="line2d_12">
      <g>
       <use style="stroke:#000000;stroke-width:0.8;" x="345.283016" xlink:href="#mc4f7c1cc6d" y="307.584"/>
      </g>
     </g>
     <g id="text_6">
      <!-- 250 -->
      <g transform="translate(335.739266 322.182437)scale(0.1 -0.1)">
       <use xlink:href="#DejaVuSans-50"/>
       <use x="63.623047" xlink:href="#DejaVuSans-53"/>
       <use x="127.246094" xlink:href="#DejaVuSans-48"/>
      </g>
     </g>
    </g>
    <g id="xtick_7">
     <g id="line2d_13">
      <path clip-path="url(#p7cd856a49d)" d="M 399.573074 307.584 
L 399.573074 41.472 
" style="fill:none;stroke:#b0b0b0;stroke-linecap:square;stroke-width:0.8;"/>
     </g>
     <g id="line2d_14">
      <g>
       <use style="stroke:#000000;stroke-width:0.8;" x="399.573074" xlink:href="#mc4f7c1cc6d" y="307.584"/>
      </g>
     </g>
     <g id="text_7">
      <!-- 300 -->
      <defs>
       <path d="M 40.578125 39.3125 
Q 47.65625 37.796875 51.625 33 
Q 55.609375 28.21875 55.609375 21.1875 
Q 55.609375 10.40625 48.1875 4.484375 
Q 40.765625 -1.421875 27.09375 -1.421875 
Q 22.515625 -1.421875 17.65625 -0.515625 
Q 12.796875 0.390625 7.625 2.203125 
L 7.625 11.71875 
Q 11.71875 9.328125 16.59375 8.109375 
Q 21.484375 6.890625 26.8125 6.890625 
Q 36.078125 6.890625 40.9375 10.546875 
Q 45.796875 14.203125 45.796875 21.1875 
Q 45.796875 27.640625 41.28125 31.265625 
Q 36.765625 34.90625 28.71875 34.90625 
L 20.21875 34.90625 
L 20.21875 43.015625 
L 29.109375 43.015625 
Q 36.375 43.015625 40.234375 45.921875 
Q 44.09375 48.828125 44.09375 54.296875 
Q 44.09375 59.90625 40.109375 62.90625 
Q 36.140625 65.921875 28.71875 65.921875 
Q 24.65625 65.921875 20.015625 65.03125 
Q 15.375 64.15625 9.8125 62.3125 
L 9.8125 71.09375 
Q 15.4375 72.65625 20.34375 73.4375 
Q 25.25 74.21875 29.59375 74.21875 
Q 40.828125 74.21875 47.359375 69.109375 
Q 53.90625 64.015625 53.90625 55.328125 
Q 53.90625 49.265625 50.4375 45.09375 
Q 46.96875 40.921875 40.578125 39.3125 
z
" id="DejaVuSans-51"/>
      </defs>
      <g transform="translate(390.029324 322.182437)scale(0.1 -0.1)">
       <use xlink:href="#DejaVuSans-51"/>
       <use x="63.623047" xlink:href="#DejaVuSans-48"/>
       <use x="127.246094" xlink:href="#DejaVuSans-48"/>
      </g>
     </g>
    </g>
    <g id="text_8">
     <!-- Generations -->
     <defs>
      <path d="M 59.515625 10.40625 
L 59.515625 29.984375 
L 43.40625 29.984375 
L 43.40625 38.09375 
L 69.28125 38.09375 
L 69.28125 6.78125 
Q 63.578125 2.734375 56.6875 0.65625 
Q 49.8125 -1.421875 42 -1.421875 
Q 24.90625 -1.421875 15.25 8.5625 
Q 5.609375 18.5625 5.609375 36.375 
Q 5.609375 54.25 15.25 64.234375 
Q 24.90625 74.21875 42 74.21875 
Q 49.125 74.21875 55.546875 72.453125 
Q 61.96875 70.703125 67.390625 67.28125 
L 67.390625 56.78125 
Q 61.921875 61.421875 55.765625 63.765625 
Q 49.609375 66.109375 42.828125 66.109375 
Q 29.4375 66.109375 22.71875 58.640625 
Q 16.015625 51.171875 16.015625 36.375 
Q 16.015625 21.625 22.71875 14.15625 
Q 29.4375 6.6875 42.828125 6.6875 
Q 48.046875 6.6875 52.140625 7.59375 
Q 56.25 8.5 59.515625 10.40625 
z
" id="DejaVuSans-71"/>
      <path d="M 56.203125 29.59375 
L 56.203125 25.203125 
L 14.890625 25.203125 
Q 15.484375 15.921875 20.484375 11.0625 
Q 25.484375 6.203125 34.421875 6.203125 
Q 39.59375 6.203125 44.453125 7.46875 
Q 49.3125 8.734375 54.109375 11.28125 
L 54.109375 2.78125 
Q 49.265625 0.734375 44.1875 -0.34375 
Q 39.109375 -1.421875 33.890625 -1.421875 
Q 20.796875 -1.421875 13.15625 6.1875 
Q 5.515625 13.8125 5.515625 26.8125 
Q 5.515625 40.234375 12.765625 48.109375 
Q 20.015625 56 32.328125 56 
Q 43.359375 56 49.78125 48.890625 
Q 56.203125 41.796875 56.203125 29.59375 
z
M 47.21875 32.234375 
Q 47.125 39.59375 43.09375 43.984375 
Q 39.0625 48.390625 32.421875 48.390625 
Q 24.90625 48.390625 20.390625 44.140625 
Q 15.875 39.890625 15.1875 32.171875 
z
" id="DejaVuSans-101"/>
      <path d="M 54.890625 33.015625 
L 54.890625 0 
L 45.90625 0 
L 45.90625 32.71875 
Q 45.90625 40.484375 42.875 44.328125 
Q 39.84375 48.1875 33.796875 48.1875 
Q 26.515625 48.1875 22.3125 43.546875 
Q 18.109375 38.921875 18.109375 30.90625 
L 18.109375 0 
L 9.078125 0 
L 9.078125 54.6875 
L 18.109375 54.6875 
L 18.109375 46.1875 
Q 21.34375 51.125 25.703125 53.5625 
Q 30.078125 56 35.796875 56 
Q 45.21875 56 50.046875 50.171875 
Q 54.890625 44.34375 54.890625 33.015625 
z
" id="DejaVuSans-110"/>
      <path d="M 41.109375 46.296875 
Q 39.59375 47.171875 37.8125 47.578125 
Q 36.03125 48 33.890625 48 
Q 26.265625 48 22.1875 43.046875 
Q 18.109375 38.09375 18.109375 28.8125 
L 18.109375 0 
L 9.078125 0 
L 9.078125 54.6875 
L 18.109375 54.6875 
L 18.109375 46.1875 
Q 20.953125 51.171875 25.484375 53.578125 
Q 30.03125 56 36.53125 56 
Q 37.453125 56 38.578125 55.875 
Q 39.703125 55.765625 41.0625 55.515625 
z
" id="DejaVuSans-114"/>
      <path d="M 34.28125 27.484375 
Q 23.390625 27.484375 19.1875 25 
Q 14.984375 22.515625 14.984375 16.5 
Q 14.984375 11.71875 18.140625 8.90625 
Q 21.296875 6.109375 26.703125 6.109375 
Q 34.1875 6.109375 38.703125 11.40625 
Q 43.21875 16.703125 43.21875 25.484375 
L 43.21875 27.484375 
z
M 52.203125 31.203125 
L 52.203125 0 
L 43.21875 0 
L 43.21875 8.296875 
Q 40.140625 3.328125 35.546875 0.953125 
Q 30.953125 -1.421875 24.3125 -1.421875 
Q 15.921875 -1.421875 10.953125 3.296875 
Q 6 8.015625 6 15.921875 
Q 6 25.140625 12.171875 29.828125 
Q 18.359375 34.515625 30.609375 34.515625 
L 43.21875 34.515625 
L 43.21875 35.40625 
Q 43.21875 41.609375 39.140625 45 
Q 35.0625 48.390625 27.6875 48.390625 
Q 23 48.390625 18.546875 47.265625 
Q 14.109375 46.140625 10.015625 43.890625 
L 10.015625 52.203125 
Q 14.9375 54.109375 19.578125 55.046875 
Q 24.21875 56 28.609375 56 
Q 40.484375 56 46.34375 49.84375 
Q 52.203125 43.703125 52.203125 31.203125 
z
" id="DejaVuSans-97"/>
      <path d="M 18.3125 70.21875 
L 18.3125 54.6875 
L 36.8125 54.6875 
L 36.8125 47.703125 
L 18.3125 47.703125 
L 18.3125 18.015625 
Q 18.3125 11.328125 20.140625 9.421875 
Q 21.96875 7.515625 27.59375 7.515625 
L 36.8125 7.515625 
L 36.8125 0 
L 27.59375 0 
Q 17.1875 0 13.234375 3.875 
Q 9.28125 7.765625 9.28125 18.015625 
L 9.28125 47.703125 
L 2.6875 47.703125 
L 2.6875 54.6875 
L 9.28125 54.6875 
L 9.28125 70.21875 
z
" id="DejaVuSans-116"/>
      <path d="M 9.421875 54.6875 
L 18.40625 54.6875 
L 18.40625 0 
L 9.421875 0 
z
M 9.421875 75.984375 
L 18.40625 75.984375 
L 18.40625 64.59375 
L 9.421875 64.59375 
z
" id="DejaVuSans-105"/>
      <path d="M 30.609375 48.390625 
Q 23.390625 48.390625 19.1875 42.75 
Q 14.984375 37.109375 14.984375 27.296875 
Q 14.984375 17.484375 19.15625 11.84375 
Q 23.34375 6.203125 30.609375 6.203125 
Q 37.796875 6.203125 41.984375 11.859375 
Q 46.1875 17.53125 46.1875 27.296875 
Q 46.1875 37.015625 41.984375 42.703125 
Q 37.796875 48.390625 30.609375 48.390625 
z
M 30.609375 56 
Q 42.328125 56 49.015625 48.375 
Q 55.71875 40.765625 55.71875 27.296875 
Q 55.71875 13.875 49.015625 6.21875 
Q 42.328125 -1.421875 30.609375 -1.421875 
Q 18.84375 -1.421875 12.171875 6.21875 
Q 5.515625 13.875 5.515625 27.296875 
Q 5.515625 40.765625 12.171875 48.375 
Q 18.84375 56 30.609375 56 
z
" id="DejaVuSans-111"/>
      <path d="M 44.28125 53.078125 
L 44.28125 44.578125 
Q 40.484375 46.53125 36.375 47.5 
Q 32.28125 48.484375 27.875 48.484375 
Q 21.1875 48.484375 17.84375 46.4375 
Q 14.5 44.390625 14.5 40.28125 
Q 14.5 37.15625 16.890625 35.375 
Q 19.28125 33.59375 26.515625 31.984375 
L 29.59375 31.296875 
Q 39.15625 29.25 43.1875 25.515625 
Q 47.21875 21.78125 47.21875 15.09375 
Q 47.21875 7.46875 41.1875 3.015625 
Q 35.15625 -1.421875 24.609375 -1.421875 
Q 20.21875 -1.421875 15.453125 -0.5625 
Q 10.6875 0.296875 5.421875 2 
L 5.421875 11.28125 
Q 10.40625 8.6875 15.234375 7.390625 
Q 20.0625 6.109375 24.8125 6.109375 
Q 31.15625 6.109375 34.5625 8.28125 
Q 37.984375 10.453125 37.984375 14.40625 
Q 37.984375 18.0625 35.515625 20.015625 
Q 33.0625 21.96875 24.703125 23.78125 
L 21.578125 24.515625 
Q 13.234375 26.265625 9.515625 29.90625 
Q 5.8125 33.546875 5.8125 39.890625 
Q 5.8125 47.609375 11.28125 51.796875 
Q 16.75 56 26.8125 56 
Q 31.78125 56 36.171875 55.265625 
Q 40.578125 54.546875 44.28125 53.078125 
z
" id="DejaVuSans-115"/>
     </defs>
     <g transform="translate(205.662344 335.860562)scale(0.1 -0.1)">
      <use xlink:href="#DejaVuSans-71"/>
      <use x="77.490234" xlink:href="#DejaVuSans-101"/>
      <use x="139.013672" xlink:href="#DejaVuSans-110"/>
      <use x="202.392578" xlink:href="#DejaVuSans-101"/>
      <use x="263.916016" xlink:href="#DejaVuSans-114"/>
      <use x="305.029297" xlink:href="#DejaVuSans-97"/>
      <use x="366.308594" xlink:href="#DejaVuSans-116"/>
      <use x="405.517578" xlink:href="#DejaVuSans-105"/>
      <use x="433.300781" xlink:href="#DejaVuSans-111"/>
      <use x="494.482422" xlink:href="#DejaVuSans-110"/>
      <use x="557.861328" xlink:href="#DejaVuSans-115"/>
     </g>
    </g>
   </g>
   <g id="matplotlib.axis_2">
    <g id="ytick_1">
     <g id="line2d_15">
      <path clip-path="url(#p7cd856a49d)" d="M 57.6 284.163184 
L 414.72 284.163184 
" style="fill:none;stroke:#b0b0b0;stroke-linecap:square;stroke-width:0.8;"/>
     </g>
     <g id="line2d_16">
      <defs>
       <path d="M 0 0 
L -3.5 0 
" id="mb92938ef3d" style="stroke:#000000;stroke-width:0.8;"/>
      </defs>
      <g>
       <use style="stroke:#000000;stroke-width:0.8;" x="57.6" xlink:href="#mb92938ef3d" y="284.163184"/>
      </g>
     </g>
     <g id="text_9">
      <!-- 0 -->
      <g transform="translate(44.2375 287.962403)scale(0.1 -0.1)">
       <use xlink:href="#DejaVuSans-48"/>
      </g>
     </g>
    </g>
    <g id="ytick_2">
     <g id="line2d_17">
      <path clip-path="url(#p7cd856a49d)" d="M 57.6 245.057161 
L 414.72 245.057161 
" style="fill:none;stroke:#b0b0b0;stroke-linecap:square;stroke-width:0.8;"/>
     </g>
     <g id="line2d_18">
      <g>
       <use style="stroke:#000000;stroke-width:0.8;" x="57.6" xlink:href="#mb92938ef3d" y="245.057161"/>
      </g>
     </g>
     <g id="text_10">
      <!-- 200 -->
      <g transform="translate(31.5125 248.856379)scale(0.1 -0.1)">
       <use xlink:href="#DejaVuSans-50"/>
       <use x="63.623047" xlink:href="#DejaVuSans-48"/>
       <use x="127.246094" xlink:href="#DejaVuSans-48"/>
      </g>
     </g>
    </g>
    <g id="ytick_3">
     <g id="line2d_19">
      <path clip-path="url(#p7cd856a49d)" d="M 57.6 205.951137 
L 414.72 205.951137 
" style="fill:none;stroke:#b0b0b0;stroke-linecap:square;stroke-width:0.8;"/>
     </g>
     <g id="line2d_20">
      <g>
       <use style="stroke:#000000;stroke-width:0.8;" x="57.6" xlink:href="#mb92938ef3d" y="205.951137"/>
      </g>
     </g>
     <g id="text_11">
      <!-- 400 -->
      <defs>
       <path d="M 37.796875 64.3125 
L 12.890625 25.390625 
L 37.796875 25.390625 
z
M 35.203125 72.90625 
L 47.609375 72.90625 
L 47.609375 25.390625 
L 58.015625 25.390625 
L 58.015625 17.1875 
L 47.609375 17.1875 
L 47.609375 0 
L 37.796875 0 
L 37.796875 17.1875 
L 4.890625 17.1875 
L 4.890625 26.703125 
z
" id="DejaVuSans-52"/>
      </defs>
      <g transform="translate(31.5125 209.750356)scale(0.1 -0.1)">
       <use xlink:href="#DejaVuSans-52"/>
       <use x="63.623047" xlink:href="#DejaVuSans-48"/>
       <use x="127.246094" xlink:href="#DejaVuSans-48"/>
      </g>
     </g>
    </g>
    <g id="ytick_4">
     <g id="line2d_21">
      <path clip-path="url(#p7cd856a49d)" d="M 57.6 166.845114 
L 414.72 166.845114 
" style="fill:none;stroke:#b0b0b0;stroke-linecap:square;stroke-width:0.8;"/>
     </g>
     <g id="line2d_22">
      <g>
       <use style="stroke:#000000;stroke-width:0.8;" x="57.6" xlink:href="#mb92938ef3d" y="166.845114"/>
      </g>
     </g>
     <g id="text_12">
      <!-- 600 -->
      <defs>
       <path d="M 33.015625 40.375 
Q 26.375 40.375 22.484375 35.828125 
Q 18.609375 31.296875 18.609375 23.390625 
Q 18.609375 15.53125 22.484375 10.953125 
Q 26.375 6.390625 33.015625 6.390625 
Q 39.65625 6.390625 43.53125 10.953125 
Q 47.40625 15.53125 47.40625 23.390625 
Q 47.40625 31.296875 43.53125 35.828125 
Q 39.65625 40.375 33.015625 40.375 
z
M 52.59375 71.296875 
L 52.59375 62.3125 
Q 48.875 64.0625 45.09375 64.984375 
Q 41.3125 65.921875 37.59375 65.921875 
Q 27.828125 65.921875 22.671875 59.328125 
Q 17.53125 52.734375 16.796875 39.40625 
Q 19.671875 43.65625 24.015625 45.921875 
Q 28.375 48.1875 33.59375 48.1875 
Q 44.578125 48.1875 50.953125 41.515625 
Q 57.328125 34.859375 57.328125 23.390625 
Q 57.328125 12.15625 50.6875 5.359375 
Q 44.046875 -1.421875 33.015625 -1.421875 
Q 20.359375 -1.421875 13.671875 8.265625 
Q 6.984375 17.96875 6.984375 36.375 
Q 6.984375 53.65625 15.1875 63.9375 
Q 23.390625 74.21875 37.203125 74.21875 
Q 40.921875 74.21875 44.703125 73.484375 
Q 48.484375 72.75 52.59375 71.296875 
z
" id="DejaVuSans-54"/>
      </defs>
      <g transform="translate(31.5125 170.644333)scale(0.1 -0.1)">
       <use xlink:href="#DejaVuSans-54"/>
       <use x="63.623047" xlink:href="#DejaVuSans-48"/>
       <use x="127.246094" xlink:href="#DejaVuSans-48"/>
      </g>
     </g>
    </g>
    <g id="ytick_5">
     <g id="line2d_23">
      <path clip-path="url(#p7cd856a49d)" d="M 57.6 127.739091 
L 414.72 127.739091 
" style="fill:none;stroke:#b0b0b0;stroke-linecap:square;stroke-width:0.8;"/>
     </g>
     <g id="line2d_24">
      <g>
       <use style="stroke:#000000;stroke-width:0.8;" x="57.6" xlink:href="#mb92938ef3d" y="127.739091"/>
      </g>
     </g>
     <g id="text_13">
      <!-- 800 -->
      <defs>
       <path d="M 31.78125 34.625 
Q 24.75 34.625 20.71875 30.859375 
Q 16.703125 27.09375 16.703125 20.515625 
Q 16.703125 13.921875 20.71875 10.15625 
Q 24.75 6.390625 31.78125 6.390625 
Q 38.8125 6.390625 42.859375 10.171875 
Q 46.921875 13.96875 46.921875 20.515625 
Q 46.921875 27.09375 42.890625 30.859375 
Q 38.875 34.625 31.78125 34.625 
z
M 21.921875 38.8125 
Q 15.578125 40.375 12.03125 44.71875 
Q 8.5 49.078125 8.5 55.328125 
Q 8.5 64.0625 14.71875 69.140625 
Q 20.953125 74.21875 31.78125 74.21875 
Q 42.671875 74.21875 48.875 69.140625 
Q 55.078125 64.0625 55.078125 55.328125 
Q 55.078125 49.078125 51.53125 44.71875 
Q 48 40.375 41.703125 38.8125 
Q 48.828125 37.15625 52.796875 32.3125 
Q 56.78125 27.484375 56.78125 20.515625 
Q 56.78125 9.90625 50.3125 4.234375 
Q 43.84375 -1.421875 31.78125 -1.421875 
Q 19.734375 -1.421875 13.25 4.234375 
Q 6.78125 9.90625 6.78125 20.515625 
Q 6.78125 27.484375 10.78125 32.3125 
Q 14.796875 37.15625 21.921875 38.8125 
z
M 18.3125 54.390625 
Q 18.3125 48.734375 21.84375 45.5625 
Q 25.390625 42.390625 31.78125 42.390625 
Q 38.140625 42.390625 41.71875 45.5625 
Q 45.3125 48.734375 45.3125 54.390625 
Q 45.3125 60.0625 41.71875 63.234375 
Q 38.140625 66.40625 31.78125 66.40625 
Q 25.390625 66.40625 21.84375 63.234375 
Q 18.3125 60.0625 18.3125 54.390625 
z
" id="DejaVuSans-56"/>
      </defs>
      <g transform="translate(31.5125 131.53831)scale(0.1 -0.1)">
       <use xlink:href="#DejaVuSans-56"/>
       <use x="63.623047" xlink:href="#DejaVuSans-48"/>
       <use x="127.246094" xlink:href="#DejaVuSans-48"/>
      </g>
     </g>
    </g>
    <g id="ytick_6">
     <g id="line2d_25">
      <path clip-path="url(#p7cd856a49d)" d="M 57.6 88.633068 
L 414.72 88.633068 
" style="fill:none;stroke:#b0b0b0;stroke-linecap:square;stroke-width:0.8;"/>
     </g>
     <g id="line2d_26">
      <g>
       <use style="stroke:#000000;stroke-width:0.8;" x="57.6" xlink:href="#mb92938ef3d" y="88.633068"/>
      </g>
     </g>
     <g id="text_14">
      <!-- 1000 -->
      <g transform="translate(25.15 92.432286)scale(0.1 -0.1)">
       <use xlink:href="#DejaVuSans-49"/>
       <use x="63.623047" xlink:href="#DejaVuSans-48"/>
       <use x="127.246094" xlink:href="#DejaVuSans-48"/>
       <use x="190.869141" xlink:href="#DejaVuSans-48"/>
      </g>
     </g>
    </g>
    <g id="ytick_7">
     <g id="line2d_27">
      <path clip-path="url(#p7cd856a49d)" d="M 57.6 49.527044 
L 414.72 49.527044 
" style="fill:none;stroke:#b0b0b0;stroke-linecap:square;stroke-width:0.8;"/>
     </g>
     <g id="line2d_28">
      <g>
       <use style="stroke:#000000;stroke-width:0.8;" x="57.6" xlink:href="#mb92938ef3d" y="49.527044"/>
      </g>
     </g>
     <g id="text_15">
      <!-- 1200 -->
      <g transform="translate(25.15 53.326263)scale(0.1 -0.1)">
       <use xlink:href="#DejaVuSans-49"/>
       <use x="63.623047" xlink:href="#DejaVuSans-50"/>
       <use x="127.246094" xlink:href="#DejaVuSans-48"/>
       <use x="190.869141" xlink:href="#DejaVuSans-48"/>
      </g>
     </g>
    </g>
    <g id="text_16">
     <!-- Fitness -->
     <defs>
      <path d="M 9.8125 72.90625 
L 51.703125 72.90625 
L 51.703125 64.59375 
L 19.671875 64.59375 
L 19.671875 43.109375 
L 48.578125 43.109375 
L 48.578125 34.8125 
L 19.671875 34.8125 
L 19.671875 0 
L 9.8125 0 
z
" id="DejaVuSans-70"/>
     </defs>
     <g transform="translate(19.070312 191.845187)rotate(-90)scale(0.1 -0.1)">
      <use xlink:href="#DejaVuSans-70"/>
      <use x="50.269531" xlink:href="#DejaVuSans-105"/>
      <use x="78.052734" xlink:href="#DejaVuSans-116"/>
      <use x="117.261719" xlink:href="#DejaVuSans-110"/>
      <use x="180.640625" xlink:href="#DejaVuSans-101"/>
      <use x="242.164062" xlink:href="#DejaVuSans-115"/>
      <use x="294.263672" xlink:href="#DejaVuSans-115"/>
     </g>
    </g>
   </g>
   <g id="line2d_29">
    <path clip-path="url(#p7cd856a49d)" d="M 73.832727 281.110742 
L 74.918528 280.215648 
L 76.00433 279.47133 
L 77.090131 278.870401 
L 78.175932 279.40007 
L 79.261733 278.89343 
L 80.347534 279.274496 
L 81.433335 278.739613 
L 83.604938 278.879526 
L 84.690739 277.957058 
L 85.77654 278.730923 
L 86.862341 277.214913 
L 87.948142 277.277048 
L 89.033943 278.692686 
L 91.205546 277.973569 
L 92.291347 277.447811 
L 93.377148 277.609883 
L 94.462949 277.091946 
L 96.634552 276.7678 
L 97.720353 276.684809 
L 98.806154 277.901875 
L 99.891955 278.040919 
L 100.977756 277.3948 
L 102.063557 277.518202 
L 103.149358 277.062834 
L 104.23516 276.804734 
L 105.320961 276.320759 
L 106.406762 276.162526 
L 107.492563 275.575067 
L 108.578364 275.784817 
L 109.664165 275.495117 
L 110.749967 275.624601 
L 112.921569 274.274199 
L 114.00737 274.785994 
L 115.093171 274.084258 
L 116.178972 275.472522 
L 117.264773 275.214575 
L 118.350575 274.689238 
L 119.436376 274.294996 
L 120.522177 274.580905 
L 121.607978 273.894377 
L 122.693779 272.874144 
L 123.77958 273.616289 
L 124.865382 274.010877 
L 125.951183 275.013159 
L 127.036984 275.116919 
L 130.294387 274.441678 
L 131.380189 273.333024 
L 132.46599 274.445142 
L 134.637592 273.556054 
L 135.723393 272.785504 
L 136.809194 275.338693 
L 137.894995 274.681711 
L 138.980797 273.699399 
L 140.066598 273.017318 
L 141.152399 272.785938 
L 142.2382 271.239947 
L 144.409802 272.46831 
L 145.495604 273.18873 
L 146.581405 271.811764 
L 147.667206 271.120481 
L 148.753007 270.84375 
L 149.838808 268.940947 
L 150.924609 271.055037 
L 152.01041 269.257119 
L 153.096212 270.189123 
L 154.182013 269.640589 
L 155.267814 269.633993 
L 156.353615 271.402454 
L 157.439416 271.585162 
L 158.525217 268.779755 
L 159.611019 269.645725 
L 160.69682 271.128277 
L 161.782621 271.104024 
L 162.868422 272.225056 
L 163.954223 271.922481 
L 165.040024 270.857577 
L 166.125825 268.995696 
L 167.211627 269.411886 
L 168.297428 270.387435 
L 169.383229 270.304444 
L 170.46903 269.66745 
L 171.554831 269.427619 
L 172.640632 267.648576 
L 173.726434 271.333182 
L 174.812235 269.009055 
L 175.898036 270.081964 
L 178.069638 270.448702 
L 179.155439 270.858011 
L 180.24124 270.661178 
L 181.327042 270.606862 
L 182.412843 271.354223 
L 183.498644 271.435477 
L 184.584445 269.588287 
L 185.670246 270.821078 
L 186.756047 268.112276 
L 188.92765 270.377007 
L 190.013451 270.698546 
L 191.099252 270.110301 
L 192.185053 268.38738 
L 193.270854 269.69439 
L 194.356656 268.849265 
L 195.442457 268.472109 
L 196.528258 270.682469 
L 198.69986 268.243501 
L 199.785661 269.375701 
L 200.871462 268.284918 
L 201.957264 270.096313 
L 203.043065 269.206868 
L 204.128866 272.212818 
L 205.214667 268.636355 
L 206.300468 268.922298 
L 207.386269 267.426504 
L 208.472071 271.242066 
L 209.557872 270.10289 
L 210.643673 270.515616 
L 212.815275 266.541655 
L 213.901076 267.679561 
L 214.986877 267.303274 
L 216.072679 268.615379 
L 217.15848 270.399346 
L 218.244281 267.490983 
L 219.330082 268.060857 
L 220.415883 269.456278 
L 221.501684 265.958027 
L 222.587486 266.949147 
L 223.673287 267.268947 
L 224.759088 266.49769 
L 225.844889 265.112902 
L 226.93069 266.557218 
L 228.016491 267.652621 
L 229.102292 265.847226 
L 230.188094 266.976588 
L 231.273895 263.372905 
L 232.359696 266.879191 
L 233.445497 266.410787 
L 234.531298 263.937114 
L 236.702901 266.393407 
L 237.788702 261.271219 
L 238.874503 266.103823 
L 239.960304 263.329591 
L 241.046105 265.244124 
L 242.131906 260.744759 
L 243.217708 265.598686 
L 244.303509 265.442262 
L 245.38931 266.376461 
L 246.475111 266.949147 
L 247.560912 264.07786 
L 248.646713 262.965814 
L 249.732514 264.87001 
L 250.818316 264.243364 
L 251.904117 263.98872 
L 254.075719 262.426318 
L 255.16152 264.294717 
L 256.247321 264.710644 
L 257.333123 262.870539 
L 258.418924 263.075478 
L 259.504725 263.717686 
L 260.590526 265.416625 
L 261.676327 264.97769 
L 262.762128 263.579946 
L 263.847929 265.294093 
L 264.933731 263.814582 
L 266.019532 263.557417 
L 267.105333 264.06573 
L 268.191134 264.12102 
L 269.276935 263.05158 
L 270.362736 264.543034 
L 271.448538 260.992538 
L 272.534339 264.392626 
L 273.62014 261.453447 
L 274.705941 260.702612 
L 275.791742 263.120667 
L 276.877543 262.467406 
L 277.963344 261.224483 
L 279.049146 259.006279 
L 280.134947 260.922909 
L 281.220748 261.370021 
L 282.306549 260.588705 
L 283.39235 259.3995 
L 284.478151 262.773018 
L 285.563953 265.373174 
L 286.649754 262.827372 
L 287.735555 262.124333 
L 288.821356 264.374233 
L 289.907157 266.207871 
L 290.992958 259.864262 
L 292.07876 264.66777 
L 293.164561 262.601861 
L 294.250362 263.257538 
L 295.336163 264.703282 
L 296.421964 267.592658 
L 297.507765 260.756491 
L 298.593566 265.241517 
L 299.679368 264.057908 
L 300.765169 263.882006 
L 301.85097 262.947732 
L 302.936771 265.291684 
L 304.022572 261.852192 
L 305.108373 260.529108 
L 306.194175 260.355594 
L 307.279976 259.93005 
L 308.365777 261.904576 
L 309.451578 260.769526 
L 310.537379 260.326325 
L 311.62318 260.338491 
L 312.708981 262.63874 
L 313.794783 259.399077 
L 314.880584 262.223401 
L 315.966385 264.375971 
L 317.052186 260.855209 
L 318.137987 260.230908 
L 319.223788 263.473177 
L 320.30959 260.723984 
L 321.395391 263.739115 
L 322.481192 262.674925 
L 323.566993 259.938237 
L 324.652794 262.847131 
L 325.738595 263.958843 
L 326.824396 261.148613 
L 327.910198 261.61773 
L 328.995999 262.521466 
L 330.0818 264.561072 
L 331.167601 263.003058 
L 332.253402 264.2476 
L 333.339203 260.822971 
L 334.425005 261.401473 
L 335.510806 258.893741 
L 336.596607 262.86675 
L 337.682408 259.744514 
L 338.768209 260.044761 
L 339.85401 263.42526 
L 340.939811 259.478752 
L 342.025613 262.701798 
L 343.111414 261.922285 
L 344.197215 261.5221 
L 345.283016 265.040339 
L 346.368817 263.635998 
L 347.454618 264.304561 
L 348.54042 261.157979 
L 349.626221 263.840218 
L 351.797823 263.344875 
L 352.883624 263.621659 
L 353.969425 265.944557 
L 355.055227 267.600889 
L 356.141028 265.294637 
L 357.226829 264.904336 
L 358.31263 264.735762 
L 359.398431 262.393731 
L 360.484232 264.047915 
L 361.570033 266.053619 
L 362.655835 264.255611 
L 363.741636 264.349029 
L 365.913238 260.16159 
L 366.999039 263.639715 
L 368.08484 261.92681 
L 369.170642 261.857928 
L 370.256443 259.689112 
L 372.428045 264.525291 
L 374.599647 258.906236 
L 375.685448 262.245561 
L 376.77125 260.659728 
L 377.857051 259.505169 
L 378.942852 261.85153 
L 380.028653 262.921208 
L 381.114454 261.087154 
L 382.200255 262.46562 
L 383.286057 262.68268 
L 384.371858 262.027871 
L 385.457659 260.416344 
L 386.54346 261.643553 
L 387.629261 263.198083 
L 388.715062 260.445815 
L 389.800863 262.698757 
L 390.886665 264.117532 
L 391.972466 261.48605 
L 393.058267 265.186769 
L 394.144068 263.85195 
L 395.229869 260.612668 
L 396.31567 259.66326 
L 397.401472 260.331104 
L 398.487273 263.888449 
L 398.487273 263.888449 
" style="fill:none;stroke:#0000ff;stroke-linecap:square;stroke-width:1.5;"/>
   </g>
   <g id="line2d_30">
    <path clip-path="url(#p7cd856a49d)" d="M 73.832727 285.903677 
L 74.918528 285.285502 
L 76.00433 284.989669 
L 77.090131 284.333437 
L 80.347534 285.17054 
L 81.433335 284.441496 
L 82.519137 284.810645 
L 83.604938 284.943947 
L 86.862341 284.581689 
L 87.948142 284.792277 
L 89.033943 285.207469 
L 90.119745 284.917033 
L 91.205546 284.508593 
L 92.291347 285.151057 
L 93.377148 284.67397 
L 94.462949 285.081081 
L 95.54875 284.372213 
L 96.634552 284.33519 
L 98.806154 284.949659 
L 100.977756 284.327663 
L 102.063557 285.034719 
L 103.149358 284.345343 
L 104.23516 284.037928 
L 105.320961 284.3276 
L 106.406762 283.81589 
L 107.492563 284.363204 
L 108.578364 283.829351 
L 109.664165 284.311984 
L 111.835768 284.191097 
L 112.921569 283.466948 
L 114.00737 284.420689 
L 115.093171 283.506052 
L 116.178972 285.536093 
L 117.264773 285.125736 
L 118.350575 285.120707 
L 119.436376 284.938469 
L 120.522177 284.115461 
L 121.607978 284.628092 
L 122.693779 284.557048 
L 123.77958 284.348966 
L 124.865382 284.773021 
L 125.951183 283.572348 
L 127.036984 285.663683 
L 128.122785 284.615076 
L 129.208586 285.346956 
L 130.294387 284.357916 
L 131.380189 284.165373 
L 132.46599 285.302117 
L 133.551791 284.91991 
L 134.637592 284.832213 
L 135.723393 285.810306 
L 136.809194 284.520988 
L 137.894995 285.691892 
L 138.980797 286.165398 
L 140.066598 285.926898 
L 141.152399 285.182446 
L 142.2382 283.853744 
L 143.324001 284.964367 
L 144.409802 285.65833 
L 145.495604 286.065457 
L 146.581405 285.037451 
L 147.667206 286.128919 
L 148.753007 284.527017 
L 149.838808 287.613799 
L 152.01041 286.544343 
L 153.096212 285.531042 
L 154.182013 285.031964 
L 155.267814 286.058537 
L 156.353615 287.268548 
L 157.439416 286.374458 
L 158.525217 287.434039 
L 159.611019 286.309235 
L 160.69682 286.88171 
L 161.782621 285.414511 
L 162.868422 287.376937 
L 163.954223 287.089157 
L 165.040024 285.978288 
L 167.211627 286.077484 
L 168.297428 286.265614 
L 169.383229 285.954819 
L 170.46903 288.550269 
L 171.554831 285.679975 
L 172.640632 285.474476 
L 173.726434 286.423549 
L 174.812235 287.192346 
L 175.898036 287.637199 
L 176.983837 287.020399 
L 178.069638 286.983208 
L 179.155439 288.464161 
L 180.24124 286.914907 
L 181.327042 285.734399 
L 182.412843 286.507391 
L 183.498644 286.323581 
L 184.584445 288.829742 
L 185.670246 287.783025 
L 186.756047 287.68296 
L 187.841849 287.931413 
L 188.92765 288.335028 
L 190.013451 287.39095 
L 191.099252 288.152249 
L 192.185053 288.479816 
L 193.270854 286.965669 
L 194.356656 287.788668 
L 195.442457 286.356623 
L 196.528258 288.103438 
L 197.614059 287.970519 
L 198.69986 287.988639 
L 199.785661 286.446208 
L 200.871462 288.467981 
L 201.957264 286.541954 
L 203.043065 287.077971 
L 204.128866 287.765645 
L 205.214667 287.044755 
L 206.300468 286.873676 
L 207.386269 286.579645 
L 208.472071 287.300252 
L 209.557872 288.286117 
L 210.643673 287.109535 
L 211.729474 287.634169 
L 212.815275 286.531223 
L 213.901076 287.938673 
L 214.986877 287.705116 
L 216.072679 289.843618 
L 217.15848 287.789981 
L 218.244281 287.990734 
L 219.330082 287.280975 
L 220.415883 289.211682 
L 221.501684 288.483995 
L 222.587486 287.962209 
L 223.673287 286.497906 
L 224.759088 286.391797 
L 225.844889 286.527706 
L 226.93069 288.977585 
L 228.016491 289.884536 
L 229.102292 289.30213 
L 230.188094 288.43441 
L 231.273895 289.251478 
L 232.359696 288.294928 
L 233.445497 291.297928 
L 234.531298 291.114594 
L 235.617099 290.702526 
L 236.702901 289.049259 
L 237.788702 287.948645 
L 238.874503 290.474507 
L 239.960304 289.235173 
L 241.046105 288.578552 
L 242.131906 287.567059 
L 243.217708 288.63963 
L 244.303509 289.446734 
L 245.38931 287.346246 
L 246.475111 290.904986 
L 247.560912 288.179705 
L 248.646713 287.147576 
L 249.732514 288.968928 
L 250.818316 289.899016 
L 251.904117 292.106913 
L 252.989918 288.989428 
L 254.075719 291.595307 
L 255.16152 288.589356 
L 256.247321 289.398925 
L 257.333123 292.334619 
L 258.418924 289.44538 
L 259.504725 290.146645 
L 260.590526 291.135215 
L 261.676327 290.332957 
L 262.762128 290.131205 
L 263.847929 290.522178 
L 264.933731 288.881634 
L 266.019532 289.780242 
L 267.105333 290.031383 
L 268.191134 288.658622 
L 269.276935 290.347423 
L 271.448538 288.86882 
L 272.534339 290.073046 
L 274.705941 289.57852 
L 275.791742 290.268174 
L 276.877543 287.889497 
L 277.963344 287.345264 
L 279.049146 290.044289 
L 280.134947 288.988899 
L 281.220748 288.630649 
L 282.306549 289.522228 
L 283.39235 289.340186 
L 284.478151 288.957979 
L 285.563953 289.336423 
L 286.649754 289.930123 
L 287.735555 291.343667 
L 288.821356 289.69278 
L 289.907157 289.83417 
L 290.992958 291.570564 
L 292.07876 290.626011 
L 293.164561 292.624501 
L 294.250362 289.69696 
L 295.336163 290.969168 
L 296.421964 289.154885 
L 298.593566 291.590659 
L 299.679368 289.716632 
L 300.765169 290.760566 
L 302.936771 292.353893 
L 304.022572 289.377356 
L 307.279976 290.199376 
L 308.365777 290.31279 
L 309.451578 289.371489 
L 310.537379 290.638705 
L 311.62318 288.944096 
L 312.708981 290.358791 
L 313.794783 287.861466 
L 314.880584 288.720224 
L 315.966385 288.806695 
L 317.052186 288.665382 
L 319.223788 287.208099 
L 320.30959 288.283689 
L 321.395391 287.749146 
L 322.481192 287.643604 
L 323.566993 290.134049 
L 324.652794 289.640553 
L 325.738595 290.137339 
L 326.824396 288.503381 
L 327.910198 287.090997 
L 328.995999 286.912428 
L 331.167601 287.838359 
L 332.253402 288.854815 
L 333.339203 287.85837 
L 334.425005 286.285858 
L 335.510806 286.00482 
L 336.596607 290.212394 
L 337.682408 286.918553 
L 338.768209 287.863383 
L 339.85401 289.575372 
L 340.939811 288.521021 
L 342.025613 289.838669 
L 343.111414 290.866101 
L 344.197215 289.221855 
L 345.283016 291.728258 
L 346.368817 289.972292 
L 347.454618 290.345722 
L 348.54042 288.792192 
L 349.626221 290.429261 
L 350.712022 288.767462 
L 351.797823 290.863531 
L 352.883624 290.635592 
L 353.969425 288.886562 
L 355.055227 288.98585 
L 356.141028 291.03634 
L 357.226829 291.244379 
L 358.31263 290.330423 
L 359.398431 287.887523 
L 360.484232 290.346174 
L 361.570033 288.599761 
L 362.655835 291.401345 
L 363.741636 292.377675 
L 364.827437 290.819722 
L 365.913238 288.024113 
L 366.999039 289.853604 
L 368.08484 289.510796 
L 369.170642 289.790649 
L 370.256443 290.940355 
L 371.342244 289.427236 
L 372.428045 292.486749 
L 373.513846 290.293456 
L 374.599647 287.394103 
L 375.685448 290.049195 
L 376.77125 290.140384 
L 377.857051 286.801523 
L 378.942852 291.437458 
L 380.028653 290.112579 
L 381.114454 291.529378 
L 382.200255 291.868185 
L 383.286057 291.276504 
L 384.371858 291.13488 
L 385.457659 292.421219 
L 386.54346 291.182111 
L 387.629261 292.749405 
L 388.715062 293.126695 
L 389.800863 293.219477 
L 390.886665 293.000889 
L 391.972466 292.444601 
L 393.058267 293.520471 
L 394.144068 294.127995 
L 395.229869 295.488 
L 396.31567 290.566538 
L 397.401472 292.735339 
L 398.487273 292.938935 
L 398.487273 292.938935 
" style="fill:none;stroke:#008000;stroke-dasharray:9.6,2.4,1.5,2.4;stroke-dashoffset:0;stroke-width:1.5;"/>
   </g>
   <g id="line2d_31">
    <path clip-path="url(#p7cd856a49d)" d="M 73.832727 276.317806 
L 76.00433 273.952991 
L 77.090131 273.407365 
L 78.175932 274.210266 
L 79.261733 273.032282 
L 80.347534 273.378453 
L 82.519137 272.80241 
L 83.604938 272.815104 
L 84.690739 271.064072 
L 85.77654 272.663535 
L 86.862341 269.848136 
L 87.948142 269.761818 
L 89.033943 272.177902 
L 90.119745 271.721848 
L 91.205546 271.438546 
L 92.291347 269.744564 
L 93.377148 270.545797 
L 94.462949 269.10281 
L 95.54875 269.456248 
L 96.634552 269.200411 
L 97.720353 268.750508 
L 98.806154 270.854091 
L 99.891955 271.441535 
L 100.977756 270.461938 
L 102.063557 270.001684 
L 104.23516 269.57154 
L 105.320961 268.313918 
L 106.406762 268.509162 
L 107.492563 266.78693 
L 108.578364 267.740282 
L 109.664165 266.678249 
L 110.749967 267.035122 
L 111.835768 265.783778 
L 112.921569 265.08145 
L 114.00737 265.151299 
L 115.093171 264.662465 
L 116.178972 265.408951 
L 117.264773 265.303414 
L 118.350575 264.257768 
L 119.436376 263.651524 
L 120.522177 265.046348 
L 122.693779 261.19124 
L 123.77958 262.883613 
L 124.865382 263.248733 
L 125.951183 266.453971 
L 127.036984 264.570155 
L 128.122785 265.097693 
L 129.208586 263.700186 
L 130.294387 264.52544 
L 131.380189 262.500676 
L 132.46599 263.588168 
L 133.551791 263.170931 
L 134.637592 262.279896 
L 135.723393 259.760702 
L 136.809194 266.156397 
L 138.980797 261.233401 
L 140.066598 260.107737 
L 141.152399 260.389431 
L 142.2382 258.62615 
L 143.324001 258.645256 
L 144.409802 259.278291 
L 145.495604 260.312003 
L 146.581405 258.586076 
L 147.667206 256.112042 
L 148.753007 257.160484 
L 149.838808 250.268095 
L 150.924609 255.059813 
L 152.01041 251.969895 
L 153.096212 254.847204 
L 154.182013 254.249214 
L 155.267814 253.209448 
L 156.353615 255.53636 
L 157.439416 256.795866 
L 158.525217 250.12547 
L 159.611019 252.982214 
L 160.69682 255.374844 
L 161.782621 256.793537 
L 162.868422 257.073175 
L 163.954223 256.755804 
L 165.040024 255.736865 
L 166.125825 251.976853 
L 167.211627 252.746288 
L 168.297428 254.509257 
L 169.383229 254.654069 
L 170.46903 250.784631 
L 171.554831 253.175262 
L 172.640632 249.822676 
L 173.726434 256.242816 
L 174.812235 250.825764 
L 175.898036 252.526729 
L 176.983837 253.582109 
L 178.069638 253.914195 
L 179.155439 253.251861 
L 181.327042 255.479325 
L 182.412843 256.201055 
L 183.498644 256.547373 
L 184.584445 250.346832 
L 185.670246 253.859131 
L 186.756047 248.541591 
L 188.92765 252.418986 
L 190.013451 254.006141 
L 191.099252 252.068354 
L 192.185053 248.294943 
L 193.270854 252.423111 
L 194.356656 249.909863 
L 195.442457 250.587596 
L 196.528258 253.261499 
L 197.614059 251.075595 
L 198.69986 248.498363 
L 199.785661 252.305195 
L 200.871462 248.101855 
L 201.957264 253.650672 
L 203.043065 251.335765 
L 204.128866 256.65999 
L 205.214667 250.227954 
L 206.300468 250.97092 
L 207.386269 248.273362 
L 208.472071 255.18388 
L 209.557872 251.919663 
L 210.643673 253.921698 
L 211.729474 249.494283 
L 212.815275 246.552086 
L 213.901076 247.420448 
L 214.986877 246.901432 
L 216.072679 247.38714 
L 217.15848 253.008711 
L 218.244281 246.991231 
L 219.330082 248.840738 
L 220.415883 249.700873 
L 221.501684 243.432058 
L 222.587486 245.936085 
L 223.673287 248.039989 
L 224.759088 246.603583 
L 225.844889 243.698098 
L 226.93069 244.136851 
L 228.016491 245.420706 
L 229.102292 242.392322 
L 230.188094 245.518766 
L 231.273895 237.494331 
L 232.359696 245.463454 
L 233.445497 241.523646 
L 234.531298 236.759635 
L 235.617099 239.752928 
L 236.702901 243.737555 
L 237.788702 234.593794 
L 238.874503 241.733139 
L 239.960304 237.424008 
L 241.046105 241.909697 
L 242.131906 233.922459 
L 243.217708 242.557742 
L 244.303509 241.437789 
L 245.38931 245.406676 
L 246.475111 242.993308 
L 247.560912 239.976014 
L 248.646713 238.784051 
L 249.732514 240.771092 
L 250.818316 238.587712 
L 251.904117 235.870527 
L 252.989918 237.503924 
L 254.075719 233.25733 
L 255.16152 240.000078 
L 256.247321 240.022363 
L 257.333123 233.406458 
L 258.418924 236.705576 
L 259.504725 237.288727 
L 260.590526 239.698036 
L 261.676327 239.622424 
L 262.762128 237.028687 
L 263.847929 240.066008 
L 266.019532 237.334593 
L 267.105333 238.100076 
L 268.191134 239.583418 
L 269.276935 235.755737 
L 270.362736 239.413001 
L 271.448538 233.116257 
L 272.534339 238.712206 
L 273.62014 233.074865 
L 274.705941 231.826703 
L 275.791742 235.97316 
L 276.877543 237.045316 
L 277.963344 235.103703 
L 279.049146 227.968269 
L 280.134947 232.856919 
L 281.220748 234.109393 
L 283.39235 229.458814 
L 284.478151 236.588056 
L 285.563953 241.409925 
L 286.649754 235.724621 
L 287.735555 232.904998 
L 288.821356 239.055685 
L 289.907157 242.581571 
L 290.992958 228.15796 
L 292.07876 238.70953 
L 293.164561 232.57922 
L 294.250362 236.818117 
L 295.336163 238.437396 
L 296.421964 246.030431 
L 297.507765 231.110289 
L 298.593566 238.892376 
L 299.679368 238.399184 
L 300.765169 237.003446 
L 301.85097 234.300558 
L 302.936771 238.229476 
L 304.022572 234.327027 
L 305.108373 231.384764 
L 306.194175 230.848758 
L 307.279976 229.660725 
L 308.365777 233.496362 
L 309.451578 232.167563 
L 310.537379 230.013944 
L 311.62318 231.732886 
L 312.708981 234.91869 
L 313.794783 230.936689 
L 314.880584 235.726579 
L 315.966385 239.945246 
L 317.052186 233.045036 
L 318.137987 232.53434 
L 319.223788 239.738254 
L 320.30959 233.164279 
L 321.395391 239.729084 
L 322.481192 237.706247 
L 323.566993 229.742424 
L 324.652794 236.05371 
L 325.738595 237.780346 
L 326.824396 233.793846 
L 327.910198 236.144464 
L 328.995999 238.130504 
L 330.0818 241.791919 
L 331.167601 238.167756 
L 332.253402 239.640385 
L 333.339203 233.787572 
L 334.425005 236.517088 
L 335.510806 231.782661 
L 336.596607 235.521106 
L 337.682408 232.570474 
L 338.768209 232.226139 
L 339.85401 237.275148 
L 340.939811 230.436482 
L 342.025613 235.564928 
L 343.111414 232.978469 
L 344.197215 233.822345 
L 345.283016 238.352419 
L 346.368817 237.299704 
L 347.454618 238.2634 
L 348.54042 233.523767 
L 349.626221 237.251175 
L 350.712022 238.422661 
L 351.797823 235.826219 
L 352.883624 236.607726 
L 353.969425 243.002551 
L 355.055227 246.215929 
L 356.141028 239.552934 
L 357.226829 238.564294 
L 358.31263 239.141101 
L 359.398431 236.899939 
L 360.484232 237.749655 
L 361.570033 243.507477 
L 362.655835 237.109877 
L 363.741636 236.320384 
L 364.827437 233.548869 
L 365.913238 232.299067 
L 366.999039 237.425826 
L 368.08484 234.342824 
L 369.170642 233.925206 
L 370.256443 228.43787 
L 371.342244 234.976985 
L 372.428045 236.563833 
L 373.513846 233.306534 
L 374.599647 230.41837 
L 375.685448 234.441927 
L 376.77125 231.179071 
L 377.857051 232.208814 
L 378.942852 232.265603 
L 380.028653 235.729837 
L 381.114454 230.64493 
L 382.200255 233.063056 
L 383.286057 234.088855 
L 384.371858 232.920862 
L 385.457659 228.411468 
L 386.54346 232.104996 
L 387.629261 233.646761 
L 388.715062 227.764936 
L 389.800863 232.178036 
L 390.886665 235.234175 
L 391.972466 230.5275 
L 393.058267 236.853067 
L 394.144068 233.575905 
L 395.229869 225.737335 
L 396.31567 228.759982 
L 397.401472 227.926869 
L 398.487273 234.837963 
L 398.487273 234.837963 
" style="fill:none;stroke:#008000;stroke-dasharray:9.6,2.4,1.5,2.4;stroke-dashoffset:0;stroke-width:1.5;"/>
   </g>
   <g id="line2d_32">
    <path clip-path="url(#p7cd856a49d)" d="M 73.832727 244.405394 
L 74.918528 258.092502 
L 77.090131 247.664229 
L 78.175932 259.396036 
L 79.261733 246.360695 
L 80.347534 245.708928 
L 81.433335 247.664229 
L 82.519137 243.753627 
L 83.604938 245.448221 
L 84.690739 242.841153 
L 85.77654 254.96402 
L 86.862341 246.360695 
L 87.948142 244.144687 
L 89.033943 237.235956 
L 90.119745 255.876494 
L 91.205546 253.530132 
L 92.291347 241.798325 
L 93.377148 241.928679 
L 94.462949 247.012462 
L 96.634552 244.405394 
L 97.720353 240.234084 
L 98.806154 242.189386 
L 99.891955 251.444478 
L 100.977756 250.271297 
L 102.063557 236.323482 
L 103.149358 238.93055 
L 104.23516 250.01059 
L 105.320961 232.02182 
L 106.406762 248.315996 
L 107.492563 234.368181 
L 108.578364 247.142815 
L 109.664165 224.852382 
L 110.749967 227.45945 
L 111.835768 235.280655 
L 112.921569 232.02182 
L 114.00737 227.45945 
L 115.093171 226.67733 
L 116.178972 220.681073 
L 117.264773 229.154045 
L 118.350575 226.155916 
L 119.436376 221.33284 
L 120.522177 237.887723 
L 121.607978 235.019948 
L 122.693779 211.556334 
L 123.77958 219.116832 
L 124.865382 220.029306 
L 125.951183 240.234084 
L 127.036984 216.77047 
L 128.122785 218.074005 
L 129.208586 218.074005 
L 130.294387 236.323482 
L 131.380189 229.805812 
L 132.46599 224.852382 
L 133.551791 227.85051 
L 134.637592 230.457579 
L 135.723393 180.923282 
L 136.809194 230.066518 
L 137.894995 218.986478 
L 138.980797 215.075876 
L 140.066598 200.476294 
L 142.2382 225.504149 
L 144.409802 198.129933 
L 145.495604 202.040535 
L 146.581405 203.344069 
L 147.667206 165.93264 
L 148.753007 212.208101 
L 149.838808 141.165492 
L 150.924609 166.193347 
L 152.01041 177.925154 
L 153.096212 200.085234 
L 154.182013 192.915796 
L 155.267814 205.29937 
L 156.353615 173.102078 
L 157.439416 221.593547 
L 158.525217 167.496881 
L 159.611019 188.744487 
L 160.69682 197.478166 
L 161.782621 198.7817 
L 162.868422 200.737001 
L 163.954223 188.353427 
L 165.040024 203.083362 
L 166.125825 194.610391 
L 167.211627 184.833885 
L 168.297428 178.576921 
L 169.383229 177.273387 
L 170.46903 151.202705 
L 171.554831 192.264029 
L 172.640632 190.960495 
L 173.726434 203.735129 
L 174.812235 197.478166 
L 175.898036 192.655089 
L 176.983837 185.485652 
L 178.069638 182.487523 
L 179.155439 146.118922 
L 180.24124 188.353427 
L 181.327042 206.602904 
L 182.412843 201.388768 
L 183.498644 213.120575 
L 184.584445 162.282745 
L 185.670246 175.057379 
L 186.756047 176.360913 
L 187.841849 171.146777 
L 188.92765 155.113307 
L 190.013451 207.645732 
L 191.099252 179.228688 
L 192.185053 144.033267 
L 193.270854 187.440953 
L 194.356656 175.057379 
L 195.442457 185.746359 
L 196.528258 182.487523 
L 197.614059 184.442825 
L 198.69986 148.595637 
L 199.785661 176.62162 
L 200.871462 161.630978 
L 201.957264 199.824527 
L 203.043065 189.656961 
L 204.128866 213.772342 
L 205.214667 169.452182 
L 206.300468 192.915796 
L 207.386269 194.21933 
L 208.472071 186.789186 
L 209.557872 187.70166 
L 210.643673 201.388768 
L 211.729474 195.522864 
L 212.815275 198.7817 
L 213.901076 174.014552 
L 214.986877 169.843243 
L 216.072679 169.452182 
L 217.15848 205.951137 
L 218.244281 175.709146 
L 219.330082 173.753845 
L 220.415883 152.245532 
L 221.501684 154.8526 
L 222.587486 174.014552 
L 223.673287 158.111436 
L 224.759088 190.699788 
L 225.844889 189.656961 
L 226.93069 156.416841 
L 228.016491 159.675676 
L 229.102292 168.148648 
L 230.188094 165.280873 
L 231.273895 152.506239 
L 232.359696 191.612262 
L 233.445497 143.120793 
L 234.531298 153.549066 
L 235.617099 148.33493 
L 236.702901 160.066737 
L 237.788702 158.763203 
L 238.874503 151.593765 
L 239.960304 158.111436 
L 241.046105 147.292102 
L 242.131906 139.470898 
L 243.217708 162.934512 
L 244.303509 147.683163 
L 245.38931 183.530351 
L 246.475111 145.988568 
L 247.560912 159.41497 
L 248.646713 163.977339 
L 249.732514 156.807901 
L 250.818316 147.94387 
L 251.904117 123.567782 
L 252.989918 165.54158 
L 254.075719 114.051983 
L 255.16152 158.372142 
L 256.247321 136.603123 
L 257.333123 101.407702 
L 258.418924 108.577139 
L 259.504725 166.584407 
L 260.590526 152.897299 
L 261.676327 149.638464 
L 262.762128 139.210191 
L 263.847929 163.325572 
L 264.933731 160.327444 
L 266.019532 150.941998 
L 267.105333 163.977339 
L 268.191134 147.94387 
L 269.276935 126.17485 
L 270.362736 126.56591 
L 271.448538 146.379629 
L 272.534339 155.765074 
L 273.62014 145.727862 
L 274.705941 134.647822 
L 275.791742 150.550938 
L 276.877543 158.763203 
L 277.963344 141.817259 
L 279.049146 95.150738 
L 280.134947 156.156134 
L 281.220748 158.763203 
L 282.306549 139.861958 
L 283.39235 128.130151 
L 284.478151 168.148648 
L 285.563953 163.325572 
L 286.649754 151.854472 
L 287.735555 126.17485 
L 289.907157 165.93264 
L 290.992958 100.755935 
L 292.07876 151.202705 
L 293.164561 129.433685 
L 294.250362 143.77256 
L 295.336163 145.076094 
L 296.421964 189.656961 
L 297.507765 151.984825 
L 298.593566 150.941998 
L 299.679368 162.282745 
L 300.765169 164.889813 
L 301.85097 136.212063 
L 302.936771 91.631196 
L 304.022572 121.612481 
L 305.108373 143.120793 
L 306.194175 155.504367 
L 307.279976 132.30146 
L 308.365777 145.076094 
L 309.451578 150.941998 
L 310.537379 126.17485 
L 311.62318 160.327444 
L 312.708981 147.94387 
L 313.794783 165.280873 
L 314.880584 154.8526 
L 315.966385 141.817259 
L 317.052186 147.683163 
L 318.137987 144.685034 
L 319.223788 158.763203 
L 320.30959 144.685034 
L 321.395391 178.967981 
L 322.481192 151.593765 
L 323.566993 53.568 
L 324.652794 140.122665 
L 325.738595 138.558424 
L 326.824396 162.282745 
L 327.910198 169.191475 
L 328.995999 167.236174 
L 330.0818 166.845114 
L 331.167601 163.977339 
L 332.253402 149.638464 
L 333.339203 143.120793 
L 334.425005 161.630978 
L 335.510806 177.01268 
L 336.596607 144.424327 
L 337.682408 162.673805 
L 338.768209 155.113307 
L 339.85401 153.158006 
L 340.939811 156.156134 
L 342.025613 140.513725 
L 343.111414 141.165492 
L 344.197215 140.513725 
L 345.283016 89.024128 
L 346.368817 140.513725 
L 347.454618 143.77256 
L 348.54042 105.318304 
L 349.626221 143.120793 
L 350.712022 150.290231 
L 351.797823 145.727862 
L 352.883624 148.33493 
L 353.969425 163.977339 
L 355.055227 173.362785 
L 356.141028 152.897299 
L 357.226829 152.506239 
L 358.31263 160.327444 
L 359.398431 162.282745 
L 360.484232 167.887941 
L 361.570033 176.360913 
L 362.655835 145.727862 
L 363.741636 130.737219 
L 364.827437 112.748449 
L 365.913238 156.416841 
L 366.999039 167.236174 
L 368.08484 146.640335 
L 369.170642 153.549066 
L 370.256443 121.22142 
L 371.342244 135.299589 
L 372.428045 114.443043 
L 373.513846 141.817259 
L 374.599647 137.906657 
L 375.685448 145.076094 
L 376.77125 160.066737 
L 377.857051 161.370271 
L 378.942852 125.523083 
L 380.028653 146.379629 
L 381.114454 124.871316 
L 382.200255 150.290231 
L 383.286057 141.165492 
L 384.371858 129.433685 
L 385.457659 150.941998 
L 386.54346 147.031396 
L 387.629261 147.683163 
L 388.715062 126.56591 
L 389.800863 136.603123 
L 390.886665 153.940126 
L 391.972466 116.398344 
L 393.058267 153.809773 
L 394.144068 129.433685 
L 395.229869 120.308946 
L 396.31567 143.77256 
L 397.401472 74.033486 
L 398.487273 113.139509 
L 398.487273 113.139509 
" style="fill:none;stroke:#ff0000;stroke-linecap:square;stroke-width:1.5;"/>
   </g>
   <g id="patch_3">
    <path d="M 57.6 307.584 
L 57.6 41.472 
" style="fill:none;stroke:#000000;stroke-linecap:square;stroke-linejoin:miter;stroke-width:0.8;"/>
   </g>
   <g id="patch_4">
    <path d="M 414.72 307.584 
L 414.72 41.472 
" style="fill:none;stroke:#000000;stroke-linecap:square;stroke-linejoin:miter;stroke-width:0.8;"/>
   </g>
   <g id="patch_5">
    <path d="M 57.6 307.584 
L 414.72 307.584 
" style="fill:none;stroke:#000000;stroke-linecap:square;stroke-linejoin:miter;stroke-width:0.8;"/>
   </g>
   <g id="patch_6">
    <path d="M 57.6 41.472 
L 414.72 41.472 
" style="fill:none;stroke:#000000;stroke-linecap:square;stroke-linejoin:miter;stroke-width:0.8;"/>
   </g>
   <g id="text_17">
    <!-- Population's average and best fitness -->
    <defs>
     <path d="M 19.671875 64.796875 
L 19.671875 37.40625 
L 32.078125 37.40625 
Q 38.96875 37.40625 42.71875 40.96875 
Q 46.484375 44.53125 46.484375 51.125 
Q 46.484375 57.671875 42.71875 61.234375 
Q 38.96875 64.796875 32.078125 64.796875 
z
M 9.8125 72.90625 
L 32.078125 72.90625 
Q 44.34375 72.90625 50.609375 67.359375 
Q 56.890625 61.8125 56.890625 51.125 
Q 56.890625 40.328125 50.609375 34.8125 
Q 44.34375 29.296875 32.078125 29.296875 
L 19.671875 29.296875 
L 19.671875 0 
L 9.8125 0 
z
" id="DejaVuSans-80"/>
     <path d="M 18.109375 8.203125 
L 18.109375 -20.796875 
L 9.078125 -20.796875 
L 9.078125 54.6875 
L 18.109375 54.6875 
L 18.109375 46.390625 
Q 20.953125 51.265625 25.265625 53.625 
Q 29.59375 56 35.59375 56 
Q 45.5625 56 51.78125 48.09375 
Q 58.015625 40.1875 58.015625 27.296875 
Q 58.015625 14.40625 51.78125 6.484375 
Q 45.5625 -1.421875 35.59375 -1.421875 
Q 29.59375 -1.421875 25.265625 0.953125 
Q 20.953125 3.328125 18.109375 8.203125 
z
M 48.6875 27.296875 
Q 48.6875 37.203125 44.609375 42.84375 
Q 40.53125 48.484375 33.40625 48.484375 
Q 26.265625 48.484375 22.1875 42.84375 
Q 18.109375 37.203125 18.109375 27.296875 
Q 18.109375 17.390625 22.1875 11.75 
Q 26.265625 6.109375 33.40625 6.109375 
Q 40.53125 6.109375 44.609375 11.75 
Q 48.6875 17.390625 48.6875 27.296875 
z
" id="DejaVuSans-112"/>
     <path d="M 8.5 21.578125 
L 8.5 54.6875 
L 17.484375 54.6875 
L 17.484375 21.921875 
Q 17.484375 14.15625 20.5 10.265625 
Q 23.53125 6.390625 29.59375 6.390625 
Q 36.859375 6.390625 41.078125 11.03125 
Q 45.3125 15.671875 45.3125 23.6875 
L 45.3125 54.6875 
L 54.296875 54.6875 
L 54.296875 0 
L 45.3125 0 
L 45.3125 8.40625 
Q 42.046875 3.421875 37.71875 1 
Q 33.40625 -1.421875 27.6875 -1.421875 
Q 18.265625 -1.421875 13.375 4.4375 
Q 8.5 10.296875 8.5 21.578125 
z
M 31.109375 56 
z
" id="DejaVuSans-117"/>
     <path d="M 9.421875 75.984375 
L 18.40625 75.984375 
L 18.40625 0 
L 9.421875 0 
z
" id="DejaVuSans-108"/>
     <path d="M 17.921875 72.90625 
L 17.921875 45.796875 
L 9.625 45.796875 
L 9.625 72.90625 
z
" id="DejaVuSans-39"/>
     <path id="DejaVuSans-32"/>
     <path d="M 2.984375 54.6875 
L 12.5 54.6875 
L 29.59375 8.796875 
L 46.6875 54.6875 
L 56.203125 54.6875 
L 35.6875 0 
L 23.484375 0 
z
" id="DejaVuSans-118"/>
     <path d="M 45.40625 27.984375 
Q 45.40625 37.75 41.375 43.109375 
Q 37.359375 48.484375 30.078125 48.484375 
Q 22.859375 48.484375 18.828125 43.109375 
Q 14.796875 37.75 14.796875 27.984375 
Q 14.796875 18.265625 18.828125 12.890625 
Q 22.859375 7.515625 30.078125 7.515625 
Q 37.359375 7.515625 41.375 12.890625 
Q 45.40625 18.265625 45.40625 27.984375 
z
M 54.390625 6.78125 
Q 54.390625 -7.171875 48.1875 -13.984375 
Q 42 -20.796875 29.203125 -20.796875 
Q 24.46875 -20.796875 20.265625 -20.09375 
Q 16.0625 -19.390625 12.109375 -17.921875 
L 12.109375 -9.1875 
Q 16.0625 -11.328125 19.921875 -12.34375 
Q 23.78125 -13.375 27.78125 -13.375 
Q 36.625 -13.375 41.015625 -8.765625 
Q 45.40625 -4.15625 45.40625 5.171875 
L 45.40625 9.625 
Q 42.625 4.78125 38.28125 2.390625 
Q 33.9375 0 27.875 0 
Q 17.828125 0 11.671875 7.65625 
Q 5.515625 15.328125 5.515625 27.984375 
Q 5.515625 40.671875 11.671875 48.328125 
Q 17.828125 56 27.875 56 
Q 33.9375 56 38.28125 53.609375 
Q 42.625 51.21875 45.40625 46.390625 
L 45.40625 54.6875 
L 54.390625 54.6875 
z
" id="DejaVuSans-103"/>
     <path d="M 45.40625 46.390625 
L 45.40625 75.984375 
L 54.390625 75.984375 
L 54.390625 0 
L 45.40625 0 
L 45.40625 8.203125 
Q 42.578125 3.328125 38.25 0.953125 
Q 33.9375 -1.421875 27.875 -1.421875 
Q 17.96875 -1.421875 11.734375 6.484375 
Q 5.515625 14.40625 5.515625 27.296875 
Q 5.515625 40.1875 11.734375 48.09375 
Q 17.96875 56 27.875 56 
Q 33.9375 56 38.25 53.625 
Q 42.578125 51.265625 45.40625 46.390625 
z
M 14.796875 27.296875 
Q 14.796875 17.390625 18.875 11.75 
Q 22.953125 6.109375 30.078125 6.109375 
Q 37.203125 6.109375 41.296875 11.75 
Q 45.40625 17.390625 45.40625 27.296875 
Q 45.40625 37.203125 41.296875 42.84375 
Q 37.203125 48.484375 30.078125 48.484375 
Q 22.953125 48.484375 18.875 42.84375 
Q 14.796875 37.203125 14.796875 27.296875 
z
" id="DejaVuSans-100"/>
     <path d="M 48.6875 27.296875 
Q 48.6875 37.203125 44.609375 42.84375 
Q 40.53125 48.484375 33.40625 48.484375 
Q 26.265625 48.484375 22.1875 42.84375 
Q 18.109375 37.203125 18.109375 27.296875 
Q 18.109375 17.390625 22.1875 11.75 
Q 26.265625 6.109375 33.40625 6.109375 
Q 40.53125 6.109375 44.609375 11.75 
Q 48.6875 17.390625 48.6875 27.296875 
z
M 18.109375 46.390625 
Q 20.953125 51.265625 25.265625 53.625 
Q 29.59375 56 35.59375 56 
Q 45.5625 56 51.78125 48.09375 
Q 58.015625 40.1875 58.015625 27.296875 
Q 58.015625 14.40625 51.78125 6.484375 
Q 45.5625 -1.421875 35.59375 -1.421875 
Q 29.59375 -1.421875 25.265625 0.953125 
Q 20.953125 3.328125 18.109375 8.203125 
L 18.109375 0 
L 9.078125 0 
L 9.078125 75.984375 
L 18.109375 75.984375 
z
" id="DejaVuSans-98"/>
     <path d="M 37.109375 75.984375 
L 37.109375 68.5 
L 28.515625 68.5 
Q 23.6875 68.5 21.796875 66.546875 
Q 19.921875 64.59375 19.921875 59.515625 
L 19.921875 54.6875 
L 34.71875 54.6875 
L 34.71875 47.703125 
L 19.921875 47.703125 
L 19.921875 0 
L 10.890625 0 
L 10.890625 47.703125 
L 2.296875 47.703125 
L 2.296875 54.6875 
L 10.890625 54.6875 
L 10.890625 58.5 
Q 10.890625 67.625 15.140625 71.796875 
Q 19.390625 75.984375 28.609375 75.984375 
z
" id="DejaVuSans-102"/>
    </defs>
    <g transform="translate(123.529687 35.472)scale(0.12 -0.12)">
     <use xlink:href="#DejaVuSans-80"/>
     <use x="56.677734" xlink:href="#DejaVuSans-111"/>
     <use x="117.859375" xlink:href="#DejaVuSans-112"/>
     <use x="181.335938" xlink:href="#DejaVuSans-117"/>
     <use x="244.714844" xlink:href="#DejaVuSans-108"/>
     <use x="272.498047" xlink:href="#DejaVuSans-97"/>
     <use x="333.777344" xlink:href="#DejaVuSans-116"/>
     <use x="372.986328" xlink:href="#DejaVuSans-105"/>
     <use x="400.769531" xlink:href="#DejaVuSans-111"/>
     <use x="461.951172" xlink:href="#DejaVuSans-110"/>
     <use x="525.330078" xlink:href="#DejaVuSans-39"/>
     <use x="552.820312" xlink:href="#DejaVuSans-115"/>
     <use x="604.919922" xlink:href="#DejaVuSans-32"/>
     <use x="636.707031" xlink:href="#DejaVuSans-97"/>
     <use x="697.986328" xlink:href="#DejaVuSans-118"/>
     <use x="757.166016" xlink:href="#DejaVuSans-101"/>
     <use x="818.689453" xlink:href="#DejaVuSans-114"/>
     <use x="859.802734" xlink:href="#DejaVuSans-97"/>
     <use x="921.082031" xlink:href="#DejaVuSans-103"/>
     <use x="984.558594" xlink:href="#DejaVuSans-101"/>
     <use x="1046.082031" xlink:href="#DejaVuSans-32"/>
     <use x="1077.869141" xlink:href="#DejaVuSans-97"/>
     <use x="1139.148438" xlink:href="#DejaVuSans-110"/>
     <use x="1202.527344" xlink:href="#DejaVuSans-100"/>
     <use x="1266.003906" xlink:href="#DejaVuSans-32"/>
     <use x="1297.791016" xlink:href="#DejaVuSans-98"/>
     <use x="1361.267578" xlink:href="#DejaVuSans-101"/>
     <use x="1422.791016" xlink:href="#DejaVuSans-115"/>
     <use x="1474.890625" xlink:href="#DejaVuSans-116"/>
     <use x="1514.099609" xlink:href="#DejaVuSans-32"/>
     <use x="1545.886719" xlink:href="#DejaVuSans-102"/>
     <use x="1581.091797" xlink:href="#DejaVuSans-105"/>
     <use x="1608.875" xlink:href="#DejaVuSans-116"/>
     <use x="1648.083984" xlink:href="#DejaVuSans-110"/>
     <use x="1711.462891" xlink:href="#DejaVuSans-101"/>
     <use x="1772.986328" xlink:href="#DejaVuSans-115"/>
     <use x="1825.085938" xlink:href="#DejaVuSans-115"/>
    </g>
   </g>
   <g id="legend_1">
    <g id="patch_7">
     <path d="M 64.6 108.1845 
L 137.540625 108.1845 
Q 139.540625 108.1845 139.540625 106.1845 
L 139.540625 48.472 
Q 139.540625 46.472 137.540625 46.472 
L 64.6 46.472 
Q 62.6 46.472 62.6 48.472 
L 62.6 106.1845 
Q 62.6 108.1845 64.6 108.1845 
z
" style="fill:#ffffff;opacity:0.8;stroke:#cccccc;stroke-linejoin:miter;"/>
    </g>
    <g id="line2d_33">
     <path d="M 66.6 54.570438 
L 86.6 54.570438 
" style="fill:none;stroke:#0000ff;stroke-linecap:square;stroke-width:1.5;"/>
    </g>
    <g id="line2d_34"/>
    <g id="text_18">
     <!-- average -->
     <g transform="translate(94.6 58.070438)scale(0.1 -0.1)">
      <use xlink:href="#DejaVuSans-97"/>
      <use x="61.279297" xlink:href="#DejaVuSans-118"/>
      <use x="120.458984" xlink:href="#DejaVuSans-101"/>
      <use x="181.982422" xlink:href="#DejaVuSans-114"/>
      <use x="223.095703" xlink:href="#DejaVuSans-97"/>
      <use x="284.375" xlink:href="#DejaVuSans-103"/>
      <use x="347.851562" xlink:href="#DejaVuSans-101"/>
     </g>
    </g>
    <g id="line2d_35">
     <path d="M 66.6 69.248563 
L 86.6 69.248563 
" style="fill:none;stroke:#008000;stroke-dasharray:9.6,2.4,1.5,2.4;stroke-dashoffset:0;stroke-width:1.5;"/>
    </g>
    <g id="line2d_36"/>
    <g id="text_19">
     <!-- -1 sd -->
     <defs>
      <path d="M 4.890625 31.390625 
L 31.203125 31.390625 
L 31.203125 23.390625 
L 4.890625 23.390625 
z
" id="DejaVuSans-45"/>
     </defs>
     <g transform="translate(94.6 72.748563)scale(0.1 -0.1)">
      <use xlink:href="#DejaVuSans-45"/>
      <use x="36.083984" xlink:href="#DejaVuSans-49"/>
      <use x="99.707031" xlink:href="#DejaVuSans-32"/>
      <use x="131.494141" xlink:href="#DejaVuSans-115"/>
      <use x="183.59375" xlink:href="#DejaVuSans-100"/>
     </g>
    </g>
    <g id="line2d_37">
     <path d="M 66.6 83.926688 
L 86.6 83.926688 
" style="fill:none;stroke:#008000;stroke-dasharray:9.6,2.4,1.5,2.4;stroke-dashoffset:0;stroke-width:1.5;"/>
    </g>
    <g id="line2d_38"/>
    <g id="text_20">
     <!-- +1 sd -->
     <defs>
      <path d="M 46 62.703125 
L 46 35.5 
L 73.1875 35.5 
L 73.1875 27.203125 
L 46 27.203125 
L 46 0 
L 37.796875 0 
L 37.796875 27.203125 
L 10.59375 27.203125 
L 10.59375 35.5 
L 37.796875 35.5 
L 37.796875 62.703125 
z
" id="DejaVuSans-43"/>
     </defs>
     <g transform="translate(94.6 87.426688)scale(0.1 -0.1)">
      <use xlink:href="#DejaVuSans-43"/>
      <use x="83.789062" xlink:href="#DejaVuSans-49"/>
      <use x="147.412109" xlink:href="#DejaVuSans-32"/>
      <use x="179.199219" xlink:href="#DejaVuSans-115"/>
      <use x="231.298828" xlink:href="#DejaVuSans-100"/>
     </g>
    </g>
    <g id="line2d_39">
     <path d="M 66.6 98.604813 
L 86.6 98.604813 
" style="fill:none;stroke:#ff0000;stroke-linecap:square;stroke-width:1.5;"/>
    </g>
    <g id="line2d_40"/>
    <g id="text_21">
     <!-- best -->
     <g transform="translate(94.6 102.104813)scale(0.1 -0.1)">
      <use xlink:href="#DejaVuSans-98"/>
      <use x="63.476562" xlink:href="#DejaVuSans-101"/>
      <use x="125" xlink:href="#DejaVuSans-115"/>
      <use x="177.099609" xlink:href="#DejaVuSans-116"/>
     </g>
    </g>
   </g>
  </g>
 </g>
 <defs>
  <clipPath id="p7cd856a49d">
   <rect height="266.112" width="357.12" x="57.6" y="41.472"/>
  </clipPath>
 </defs>
</svg>
