<?xml version="1.0" encoding="utf-8" standalone="no"?>
<!DOCTYPE svg PUBLIC "-//W3C//DTD SVG 1.1//EN"
  "http://www.w3.org/Graphics/SVG/1.1/DTD/svg11.dtd">
<!-- Created with matplotlib (https://matplotlib.org/) -->
<svg height="345.6pt" version="1.1" viewBox="0 0 460.8 345.6" width="460.8pt" xmlns="http://www.w3.org/2000/svg" xmlns:xlink="http://www.w3.org/1999/xlink">
 <defs>
  <style type="text/css">
*{stroke-linecap:butt;stroke-linejoin:round;}
  </style>
 </defs>
 <g id="figure_1">
  <g id="patch_1">
   <path d="M 0 345.6 
L 460.8 345.6 
L 460.8 0 
L 0 0 
z
" style="fill:#ffffff;"/>
  </g>
  <g id="axes_1">
   <g id="patch_2">
    <path d="M 57.6 307.584 
L 414.72 307.584 
L 414.72 41.472 
L 57.6 41.472 
z
" style="fill:#ffffff;"/>
   </g>
   <g id="matplotlib.axis_1">
    <g id="xtick_1">
     <g id="line2d_1">
      <path clip-path="url(#p5d42082057)" d="M 73.832727 307.584 
L 73.832727 41.472 
" style="fill:none;stroke:#b0b0b0;stroke-linecap:square;stroke-width:0.8;"/>
     </g>
     <g id="line2d_2">
      <defs>
       <path d="M 0 0 
L 0 3.5 
" id="m5099769c4d" style="stroke:#000000;stroke-width:0.8;"/>
      </defs>
      <g>
       <use style="stroke:#000000;stroke-width:0.8;" x="73.832727" xlink:href="#m5099769c4d" y="307.584"/>
      </g>
     </g>
     <g id="text_1">
      <!-- 0 -->
      <defs>
       <path d="M 31.78125 66.40625 
Q 24.171875 66.40625 20.328125 58.90625 
Q 16.5 51.421875 16.5 36.375 
Q 16.5 21.390625 20.328125 13.890625 
Q 24.171875 6.390625 31.78125 6.390625 
Q 39.453125 6.390625 43.28125 13.890625 
Q 47.125 21.390625 47.125 36.375 
Q 47.125 51.421875 43.28125 58.90625 
Q 39.453125 66.40625 31.78125 66.40625 
z
M 31.78125 74.21875 
Q 44.046875 74.21875 50.515625 64.515625 
Q 56.984375 54.828125 56.984375 36.375 
Q 56.984375 17.96875 50.515625 8.265625 
Q 44.046875 -1.421875 31.78125 -1.421875 
Q 19.53125 -1.421875 13.0625 8.265625 
Q 6.59375 17.96875 6.59375 36.375 
Q 6.59375 54.828125 13.0625 64.515625 
Q 19.53125 74.21875 31.78125 74.21875 
z
" id="DejaVuSans-48"/>
      </defs>
      <g transform="translate(70.651477 322.182437)scale(0.1 -0.1)">
       <use xlink:href="#DejaVuSans-48"/>
      </g>
     </g>
    </g>
    <g id="xtick_2">
     <g id="line2d_3">
      <path clip-path="url(#p5d42082057)" d="M 128.122785 307.584 
L 128.122785 41.472 
" style="fill:none;stroke:#b0b0b0;stroke-linecap:square;stroke-width:0.8;"/>
     </g>
     <g id="line2d_4">
      <g>
       <use style="stroke:#000000;stroke-width:0.8;" x="128.122785" xlink:href="#m5099769c4d" y="307.584"/>
      </g>
     </g>
     <g id="text_2">
      <!-- 50 -->
      <defs>
       <path d="M 10.796875 72.90625 
L 49.515625 72.90625 
L 49.515625 64.59375 
L 19.828125 64.59375 
L 19.828125 46.734375 
Q 21.96875 47.46875 24.109375 47.828125 
Q 26.265625 48.1875 28.421875 48.1875 
Q 40.625 48.1875 47.75 41.5 
Q 54.890625 34.8125 54.890625 23.390625 
Q 54.890625 11.625 47.5625 5.09375 
Q 40.234375 -1.421875 26.90625 -1.421875 
Q 22.3125 -1.421875 17.546875 -0.640625 
Q 12.796875 0.140625 7.71875 1.703125 
L 7.71875 11.625 
Q 12.109375 9.234375 16.796875 8.0625 
Q 21.484375 6.890625 26.703125 6.890625 
Q 35.15625 6.890625 40.078125 11.328125 
Q 45.015625 15.765625 45.015625 23.390625 
Q 45.015625 31 40.078125 35.4375 
Q 35.15625 39.890625 26.703125 39.890625 
Q 22.75 39.890625 18.8125 39.015625 
Q 14.890625 38.140625 10.796875 36.28125 
z
" id="DejaVuSans-53"/>
      </defs>
      <g transform="translate(121.760285 322.182437)scale(0.1 -0.1)">
       <use xlink:href="#DejaVuSans-53"/>
       <use x="63.623047" xlink:href="#DejaVuSans-48"/>
      </g>
     </g>
    </g>
    <g id="xtick_3">
     <g id="line2d_5">
      <path clip-path="url(#p5d42082057)" d="M 182.412843 307.584 
L 182.412843 41.472 
" style="fill:none;stroke:#b0b0b0;stroke-linecap:square;stroke-width:0.8;"/>
     </g>
     <g id="line2d_6">
      <g>
       <use style="stroke:#000000;stroke-width:0.8;" x="182.412843" xlink:href="#m5099769c4d" y="307.584"/>
      </g>
     </g>
     <g id="text_3">
      <!-- 100 -->
      <defs>
       <path d="M 12.40625 8.296875 
L 28.515625 8.296875 
L 28.515625 63.921875 
L 10.984375 60.40625 
L 10.984375 69.390625 
L 28.421875 72.90625 
L 38.28125 72.90625 
L 38.28125 8.296875 
L 54.390625 8.296875 
L 54.390625 0 
L 12.40625 0 
z
" id="DejaVuSans-49"/>
      </defs>
      <g transform="translate(172.869093 322.182437)scale(0.1 -0.1)">
       <use xlink:href="#DejaVuSans-49"/>
       <use x="63.623047" xlink:href="#DejaVuSans-48"/>
       <use x="127.246094" xlink:href="#DejaVuSans-48"/>
      </g>
     </g>
    </g>
    <g id="xtick_4">
     <g id="line2d_7">
      <path clip-path="url(#p5d42082057)" d="M 236.702901 307.584 
L 236.702901 41.472 
" style="fill:none;stroke:#b0b0b0;stroke-linecap:square;stroke-width:0.8;"/>
     </g>
     <g id="line2d_8">
      <g>
       <use style="stroke:#000000;stroke-width:0.8;" x="236.702901" xlink:href="#m5099769c4d" y="307.584"/>
      </g>
     </g>
     <g id="text_4">
      <!-- 150 -->
      <g transform="translate(227.159151 322.182437)scale(0.1 -0.1)">
       <use xlink:href="#DejaVuSans-49"/>
       <use x="63.623047" xlink:href="#DejaVuSans-53"/>
       <use x="127.246094" xlink:href="#DejaVuSans-48"/>
      </g>
     </g>
    </g>
    <g id="xtick_5">
     <g id="line2d_9">
      <path clip-path="url(#p5d42082057)" d="M 290.992958 307.584 
L 290.992958 41.472 
" style="fill:none;stroke:#b0b0b0;stroke-linecap:square;stroke-width:0.8;"/>
     </g>
     <g id="line2d_10">
      <g>
       <use style="stroke:#000000;stroke-width:0.8;" x="290.992958" xlink:href="#m5099769c4d" y="307.584"/>
      </g>
     </g>
     <g id="text_5">
      <!-- 200 -->
      <defs>
       <path d="M 19.1875 8.296875 
L 53.609375 8.296875 
L 53.609375 0 
L 7.328125 0 
L 7.328125 8.296875 
Q 12.9375 14.109375 22.625 23.890625 
Q 32.328125 33.6875 34.8125 36.53125 
Q 39.546875 41.84375 41.421875 45.53125 
Q 43.3125 49.21875 43.3125 52.78125 
Q 43.3125 58.59375 39.234375 62.25 
Q 35.15625 65.921875 28.609375 65.921875 
Q 23.96875 65.921875 18.8125 64.3125 
Q 13.671875 62.703125 7.8125 59.421875 
L 7.8125 69.390625 
Q 13.765625 71.78125 18.9375 73 
Q 24.125 74.21875 28.421875 74.21875 
Q 39.75 74.21875 46.484375 68.546875 
Q 53.21875 62.890625 53.21875 53.421875 
Q 53.21875 48.921875 51.53125 44.890625 
Q 49.859375 40.875 45.40625 35.40625 
Q 44.1875 33.984375 37.640625 27.21875 
Q 31.109375 20.453125 19.1875 8.296875 
z
" id="DejaVuSans-50"/>
      </defs>
      <g transform="translate(281.449208 322.182437)scale(0.1 -0.1)">
       <use xlink:href="#DejaVuSans-50"/>
       <use x="63.623047" xlink:href="#DejaVuSans-48"/>
       <use x="127.246094" xlink:href="#DejaVuSans-48"/>
      </g>
     </g>
    </g>
    <g id="xtick_6">
     <g id="line2d_11">
      <path clip-path="url(#p5d42082057)" d="M 345.283016 307.584 
L 345.283016 41.472 
" style="fill:none;stroke:#b0b0b0;stroke-linecap:square;stroke-width:0.8;"/>
     </g>
     <g id="line2d_12">
      <g>
       <use style="stroke:#000000;stroke-width:0.8;" x="345.283016" xlink:href="#m5099769c4d" y="307.584"/>
      </g>
     </g>
     <g id="text_6">
      <!-- 250 -->
      <g transform="translate(335.739266 322.182437)scale(0.1 -0.1)">
       <use xlink:href="#DejaVuSans-50"/>
       <use x="63.623047" xlink:href="#DejaVuSans-53"/>
       <use x="127.246094" xlink:href="#DejaVuSans-48"/>
      </g>
     </g>
    </g>
    <g id="xtick_7">
     <g id="line2d_13">
      <path clip-path="url(#p5d42082057)" d="M 399.573074 307.584 
L 399.573074 41.472 
" style="fill:none;stroke:#b0b0b0;stroke-linecap:square;stroke-width:0.8;"/>
     </g>
     <g id="line2d_14">
      <g>
       <use style="stroke:#000000;stroke-width:0.8;" x="399.573074" xlink:href="#m5099769c4d" y="307.584"/>
      </g>
     </g>
     <g id="text_7">
      <!-- 300 -->
      <defs>
       <path d="M 40.578125 39.3125 
Q 47.65625 37.796875 51.625 33 
Q 55.609375 28.21875 55.609375 21.1875 
Q 55.609375 10.40625 48.1875 4.484375 
Q 40.765625 -1.421875 27.09375 -1.421875 
Q 22.515625 -1.421875 17.65625 -0.515625 
Q 12.796875 0.390625 7.625 2.203125 
L 7.625 11.71875 
Q 11.71875 9.328125 16.59375 8.109375 
Q 21.484375 6.890625 26.8125 6.890625 
Q 36.078125 6.890625 40.9375 10.546875 
Q 45.796875 14.203125 45.796875 21.1875 
Q 45.796875 27.640625 41.28125 31.265625 
Q 36.765625 34.90625 28.71875 34.90625 
L 20.21875 34.90625 
L 20.21875 43.015625 
L 29.109375 43.015625 
Q 36.375 43.015625 40.234375 45.921875 
Q 44.09375 48.828125 44.09375 54.296875 
Q 44.09375 59.90625 40.109375 62.90625 
Q 36.140625 65.921875 28.71875 65.921875 
Q 24.65625 65.921875 20.015625 65.03125 
Q 15.375 64.15625 9.8125 62.3125 
L 9.8125 71.09375 
Q 15.4375 72.65625 20.34375 73.4375 
Q 25.25 74.21875 29.59375 74.21875 
Q 40.828125 74.21875 47.359375 69.109375 
Q 53.90625 64.015625 53.90625 55.328125 
Q 53.90625 49.265625 50.4375 45.09375 
Q 46.96875 40.921875 40.578125 39.3125 
z
" id="DejaVuSans-51"/>
      </defs>
      <g transform="translate(390.029324 322.182437)scale(0.1 -0.1)">
       <use xlink:href="#DejaVuSans-51"/>
       <use x="63.623047" xlink:href="#DejaVuSans-48"/>
       <use x="127.246094" xlink:href="#DejaVuSans-48"/>
      </g>
     </g>
    </g>
    <g id="text_8">
     <!-- Generations -->
     <defs>
      <path d="M 59.515625 10.40625 
L 59.515625 29.984375 
L 43.40625 29.984375 
L 43.40625 38.09375 
L 69.28125 38.09375 
L 69.28125 6.78125 
Q 63.578125 2.734375 56.6875 0.65625 
Q 49.8125 -1.421875 42 -1.421875 
Q 24.90625 -1.421875 15.25 8.5625 
Q 5.609375 18.5625 5.609375 36.375 
Q 5.609375 54.25 15.25 64.234375 
Q 24.90625 74.21875 42 74.21875 
Q 49.125 74.21875 55.546875 72.453125 
Q 61.96875 70.703125 67.390625 67.28125 
L 67.390625 56.78125 
Q 61.921875 61.421875 55.765625 63.765625 
Q 49.609375 66.109375 42.828125 66.109375 
Q 29.4375 66.109375 22.71875 58.640625 
Q 16.015625 51.171875 16.015625 36.375 
Q 16.015625 21.625 22.71875 14.15625 
Q 29.4375 6.6875 42.828125 6.6875 
Q 48.046875 6.6875 52.140625 7.59375 
Q 56.25 8.5 59.515625 10.40625 
z
" id="DejaVuSans-71"/>
      <path d="M 56.203125 29.59375 
L 56.203125 25.203125 
L 14.890625 25.203125 
Q 15.484375 15.921875 20.484375 11.0625 
Q 25.484375 6.203125 34.421875 6.203125 
Q 39.59375 6.203125 44.453125 7.46875 
Q 49.3125 8.734375 54.109375 11.28125 
L 54.109375 2.78125 
Q 49.265625 0.734375 44.1875 -0.34375 
Q 39.109375 -1.421875 33.890625 -1.421875 
Q 20.796875 -1.421875 13.15625 6.1875 
Q 5.515625 13.8125 5.515625 26.8125 
Q 5.515625 40.234375 12.765625 48.109375 
Q 20.015625 56 32.328125 56 
Q 43.359375 56 49.78125 48.890625 
Q 56.203125 41.796875 56.203125 29.59375 
z
M 47.21875 32.234375 
Q 47.125 39.59375 43.09375 43.984375 
Q 39.0625 48.390625 32.421875 48.390625 
Q 24.90625 48.390625 20.390625 44.140625 
Q 15.875 39.890625 15.1875 32.171875 
z
" id="DejaVuSans-101"/>
      <path d="M 54.890625 33.015625 
L 54.890625 0 
L 45.90625 0 
L 45.90625 32.71875 
Q 45.90625 40.484375 42.875 44.328125 
Q 39.84375 48.1875 33.796875 48.1875 
Q 26.515625 48.1875 22.3125 43.546875 
Q 18.109375 38.921875 18.109375 30.90625 
L 18.109375 0 
L 9.078125 0 
L 9.078125 54.6875 
L 18.109375 54.6875 
L 18.109375 46.1875 
Q 21.34375 51.125 25.703125 53.5625 
Q 30.078125 56 35.796875 56 
Q 45.21875 56 50.046875 50.171875 
Q 54.890625 44.34375 54.890625 33.015625 
z
" id="DejaVuSans-110"/>
      <path d="M 41.109375 46.296875 
Q 39.59375 47.171875 37.8125 47.578125 
Q 36.03125 48 33.890625 48 
Q 26.265625 48 22.1875 43.046875 
Q 18.109375 38.09375 18.109375 28.8125 
L 18.109375 0 
L 9.078125 0 
L 9.078125 54.6875 
L 18.109375 54.6875 
L 18.109375 46.1875 
Q 20.953125 51.171875 25.484375 53.578125 
Q 30.03125 56 36.53125 56 
Q 37.453125 56 38.578125 55.875 
Q 39.703125 55.765625 41.0625 55.515625 
z
" id="DejaVuSans-114"/>
      <path d="M 34.28125 27.484375 
Q 23.390625 27.484375 19.1875 25 
Q 14.984375 22.515625 14.984375 16.5 
Q 14.984375 11.71875 18.140625 8.90625 
Q 21.296875 6.109375 26.703125 6.109375 
Q 34.1875 6.109375 38.703125 11.40625 
Q 43.21875 16.703125 43.21875 25.484375 
L 43.21875 27.484375 
z
M 52.203125 31.203125 
L 52.203125 0 
L 43.21875 0 
L 43.21875 8.296875 
Q 40.140625 3.328125 35.546875 0.953125 
Q 30.953125 -1.421875 24.3125 -1.421875 
Q 15.921875 -1.421875 10.953125 3.296875 
Q 6 8.015625 6 15.921875 
Q 6 25.140625 12.171875 29.828125 
Q 18.359375 34.515625 30.609375 34.515625 
L 43.21875 34.515625 
L 43.21875 35.40625 
Q 43.21875 41.609375 39.140625 45 
Q 35.0625 48.390625 27.6875 48.390625 
Q 23 48.390625 18.546875 47.265625 
Q 14.109375 46.140625 10.015625 43.890625 
L 10.015625 52.203125 
Q 14.9375 54.109375 19.578125 55.046875 
Q 24.21875 56 28.609375 56 
Q 40.484375 56 46.34375 49.84375 
Q 52.203125 43.703125 52.203125 31.203125 
z
" id="DejaVuSans-97"/>
      <path d="M 18.3125 70.21875 
L 18.3125 54.6875 
L 36.8125 54.6875 
L 36.8125 47.703125 
L 18.3125 47.703125 
L 18.3125 18.015625 
Q 18.3125 11.328125 20.140625 9.421875 
Q 21.96875 7.515625 27.59375 7.515625 
L 36.8125 7.515625 
L 36.8125 0 
L 27.59375 0 
Q 17.1875 0 13.234375 3.875 
Q 9.28125 7.765625 9.28125 18.015625 
L 9.28125 47.703125 
L 2.6875 47.703125 
L 2.6875 54.6875 
L 9.28125 54.6875 
L 9.28125 70.21875 
z
" id="DejaVuSans-116"/>
      <path d="M 9.421875 54.6875 
L 18.40625 54.6875 
L 18.40625 0 
L 9.421875 0 
z
M 9.421875 75.984375 
L 18.40625 75.984375 
L 18.40625 64.59375 
L 9.421875 64.59375 
z
" id="DejaVuSans-105"/>
      <path d="M 30.609375 48.390625 
Q 23.390625 48.390625 19.1875 42.75 
Q 14.984375 37.109375 14.984375 27.296875 
Q 14.984375 17.484375 19.15625 11.84375 
Q 23.34375 6.203125 30.609375 6.203125 
Q 37.796875 6.203125 41.984375 11.859375 
Q 46.1875 17.53125 46.1875 27.296875 
Q 46.1875 37.015625 41.984375 42.703125 
Q 37.796875 48.390625 30.609375 48.390625 
z
M 30.609375 56 
Q 42.328125 56 49.015625 48.375 
Q 55.71875 40.765625 55.71875 27.296875 
Q 55.71875 13.875 49.015625 6.21875 
Q 42.328125 -1.421875 30.609375 -1.421875 
Q 18.84375 -1.421875 12.171875 6.21875 
Q 5.515625 13.875 5.515625 27.296875 
Q 5.515625 40.765625 12.171875 48.375 
Q 18.84375 56 30.609375 56 
z
" id="DejaVuSans-111"/>
      <path d="M 44.28125 53.078125 
L 44.28125 44.578125 
Q 40.484375 46.53125 36.375 47.5 
Q 32.28125 48.484375 27.875 48.484375 
Q 21.1875 48.484375 17.84375 46.4375 
Q 14.5 44.390625 14.5 40.28125 
Q 14.5 37.15625 16.890625 35.375 
Q 19.28125 33.59375 26.515625 31.984375 
L 29.59375 31.296875 
Q 39.15625 29.25 43.1875 25.515625 
Q 47.21875 21.78125 47.21875 15.09375 
Q 47.21875 7.46875 41.1875 3.015625 
Q 35.15625 -1.421875 24.609375 -1.421875 
Q 20.21875 -1.421875 15.453125 -0.5625 
Q 10.6875 0.296875 5.421875 2 
L 5.421875 11.28125 
Q 10.40625 8.6875 15.234375 7.390625 
Q 20.0625 6.109375 24.8125 6.109375 
Q 31.15625 6.109375 34.5625 8.28125 
Q 37.984375 10.453125 37.984375 14.40625 
Q 37.984375 18.0625 35.515625 20.015625 
Q 33.0625 21.96875 24.703125 23.78125 
L 21.578125 24.515625 
Q 13.234375 26.265625 9.515625 29.90625 
Q 5.8125 33.546875 5.8125 39.890625 
Q 5.8125 47.609375 11.28125 51.796875 
Q 16.75 56 26.8125 56 
Q 31.78125 56 36.171875 55.265625 
Q 40.578125 54.546875 44.28125 53.078125 
z
" id="DejaVuSans-115"/>
     </defs>
     <g transform="translate(205.662344 335.860562)scale(0.1 -0.1)">
      <use xlink:href="#DejaVuSans-71"/>
      <use x="77.490234" xlink:href="#DejaVuSans-101"/>
      <use x="139.013672" xlink:href="#DejaVuSans-110"/>
      <use x="202.392578" xlink:href="#DejaVuSans-101"/>
      <use x="263.916016" xlink:href="#DejaVuSans-114"/>
      <use x="305.029297" xlink:href="#DejaVuSans-97"/>
      <use x="366.308594" xlink:href="#DejaVuSans-116"/>
      <use x="405.517578" xlink:href="#DejaVuSans-105"/>
      <use x="433.300781" xlink:href="#DejaVuSans-111"/>
      <use x="494.482422" xlink:href="#DejaVuSans-110"/>
      <use x="557.861328" xlink:href="#DejaVuSans-115"/>
     </g>
    </g>
   </g>
   <g id="matplotlib.axis_2">
    <g id="ytick_1">
     <g id="line2d_15">
      <path clip-path="url(#p5d42082057)" d="M 57.6 292.045632 
L 414.72 292.045632 
" style="fill:none;stroke:#b0b0b0;stroke-linecap:square;stroke-width:0.8;"/>
     </g>
     <g id="line2d_16">
      <defs>
       <path d="M 0 0 
L -3.5 0 
" id="mf7aa1443ae" style="stroke:#000000;stroke-width:0.8;"/>
      </defs>
      <g>
       <use style="stroke:#000000;stroke-width:0.8;" x="57.6" xlink:href="#mf7aa1443ae" y="292.045632"/>
      </g>
     </g>
     <g id="text_9">
      <!-- 0 -->
      <g transform="translate(44.2375 295.844851)scale(0.1 -0.1)">
       <use xlink:href="#DejaVuSans-48"/>
      </g>
     </g>
    </g>
    <g id="ytick_2">
     <g id="line2d_17">
      <path clip-path="url(#p5d42082057)" d="M 57.6 243.376727 
L 414.72 243.376727 
" style="fill:none;stroke:#b0b0b0;stroke-linecap:square;stroke-width:0.8;"/>
     </g>
     <g id="line2d_18">
      <g>
       <use style="stroke:#000000;stroke-width:0.8;" x="57.6" xlink:href="#mf7aa1443ae" y="243.376727"/>
      </g>
     </g>
     <g id="text_10">
      <!-- 20 -->
      <g transform="translate(37.875 247.175946)scale(0.1 -0.1)">
       <use xlink:href="#DejaVuSans-50"/>
       <use x="63.623047" xlink:href="#DejaVuSans-48"/>
      </g>
     </g>
    </g>
    <g id="ytick_3">
     <g id="line2d_19">
      <path clip-path="url(#p5d42082057)" d="M 57.6 194.707823 
L 414.72 194.707823 
" style="fill:none;stroke:#b0b0b0;stroke-linecap:square;stroke-width:0.8;"/>
     </g>
     <g id="line2d_20">
      <g>
       <use style="stroke:#000000;stroke-width:0.8;" x="57.6" xlink:href="#mf7aa1443ae" y="194.707823"/>
      </g>
     </g>
     <g id="text_11">
      <!-- 40 -->
      <defs>
       <path d="M 37.796875 64.3125 
L 12.890625 25.390625 
L 37.796875 25.390625 
z
M 35.203125 72.90625 
L 47.609375 72.90625 
L 47.609375 25.390625 
L 58.015625 25.390625 
L 58.015625 17.1875 
L 47.609375 17.1875 
L 47.609375 0 
L 37.796875 0 
L 37.796875 17.1875 
L 4.890625 17.1875 
L 4.890625 26.703125 
z
" id="DejaVuSans-52"/>
      </defs>
      <g transform="translate(37.875 198.507042)scale(0.1 -0.1)">
       <use xlink:href="#DejaVuSans-52"/>
       <use x="63.623047" xlink:href="#DejaVuSans-48"/>
      </g>
     </g>
    </g>
    <g id="ytick_4">
     <g id="line2d_21">
      <path clip-path="url(#p5d42082057)" d="M 57.6 146.038918 
L 414.72 146.038918 
" style="fill:none;stroke:#b0b0b0;stroke-linecap:square;stroke-width:0.8;"/>
     </g>
     <g id="line2d_22">
      <g>
       <use style="stroke:#000000;stroke-width:0.8;" x="57.6" xlink:href="#mf7aa1443ae" y="146.038918"/>
      </g>
     </g>
     <g id="text_12">
      <!-- 60 -->
      <defs>
       <path d="M 33.015625 40.375 
Q 26.375 40.375 22.484375 35.828125 
Q 18.609375 31.296875 18.609375 23.390625 
Q 18.609375 15.53125 22.484375 10.953125 
Q 26.375 6.390625 33.015625 6.390625 
Q 39.65625 6.390625 43.53125 10.953125 
Q 47.40625 15.53125 47.40625 23.390625 
Q 47.40625 31.296875 43.53125 35.828125 
Q 39.65625 40.375 33.015625 40.375 
z
M 52.59375 71.296875 
L 52.59375 62.3125 
Q 48.875 64.0625 45.09375 64.984375 
Q 41.3125 65.921875 37.59375 65.921875 
Q 27.828125 65.921875 22.671875 59.328125 
Q 17.53125 52.734375 16.796875 39.40625 
Q 19.671875 43.65625 24.015625 45.921875 
Q 28.375 48.1875 33.59375 48.1875 
Q 44.578125 48.1875 50.953125 41.515625 
Q 57.328125 34.859375 57.328125 23.390625 
Q 57.328125 12.15625 50.6875 5.359375 
Q 44.046875 -1.421875 33.015625 -1.421875 
Q 20.359375 -1.421875 13.671875 8.265625 
Q 6.984375 17.96875 6.984375 36.375 
Q 6.984375 53.65625 15.1875 63.9375 
Q 23.390625 74.21875 37.203125 74.21875 
Q 40.921875 74.21875 44.703125 73.484375 
Q 48.484375 72.75 52.59375 71.296875 
z
" id="DejaVuSans-54"/>
      </defs>
      <g transform="translate(37.875 149.838137)scale(0.1 -0.1)">
       <use xlink:href="#DejaVuSans-54"/>
       <use x="63.623047" xlink:href="#DejaVuSans-48"/>
      </g>
     </g>
    </g>
    <g id="ytick_5">
     <g id="line2d_23">
      <path clip-path="url(#p5d42082057)" d="M 57.6 97.370014 
L 414.72 97.370014 
" style="fill:none;stroke:#b0b0b0;stroke-linecap:square;stroke-width:0.8;"/>
     </g>
     <g id="line2d_24">
      <g>
       <use style="stroke:#000000;stroke-width:0.8;" x="57.6" xlink:href="#mf7aa1443ae" y="97.370014"/>
      </g>
     </g>
     <g id="text_13">
      <!-- 80 -->
      <defs>
       <path d="M 31.78125 34.625 
Q 24.75 34.625 20.71875 30.859375 
Q 16.703125 27.09375 16.703125 20.515625 
Q 16.703125 13.921875 20.71875 10.15625 
Q 24.75 6.390625 31.78125 6.390625 
Q 38.8125 6.390625 42.859375 10.171875 
Q 46.921875 13.96875 46.921875 20.515625 
Q 46.921875 27.09375 42.890625 30.859375 
Q 38.875 34.625 31.78125 34.625 
z
M 21.921875 38.8125 
Q 15.578125 40.375 12.03125 44.71875 
Q 8.5 49.078125 8.5 55.328125 
Q 8.5 64.0625 14.71875 69.140625 
Q 20.953125 74.21875 31.78125 74.21875 
Q 42.671875 74.21875 48.875 69.140625 
Q 55.078125 64.0625 55.078125 55.328125 
Q 55.078125 49.078125 51.53125 44.71875 
Q 48 40.375 41.703125 38.8125 
Q 48.828125 37.15625 52.796875 32.3125 
Q 56.78125 27.484375 56.78125 20.515625 
Q 56.78125 9.90625 50.3125 4.234375 
Q 43.84375 -1.421875 31.78125 -1.421875 
Q 19.734375 -1.421875 13.25 4.234375 
Q 6.78125 9.90625 6.78125 20.515625 
Q 6.78125 27.484375 10.78125 32.3125 
Q 14.796875 37.15625 21.921875 38.8125 
z
M 18.3125 54.390625 
Q 18.3125 48.734375 21.84375 45.5625 
Q 25.390625 42.390625 31.78125 42.390625 
Q 38.140625 42.390625 41.71875 45.5625 
Q 45.3125 48.734375 45.3125 54.390625 
Q 45.3125 60.0625 41.71875 63.234375 
Q 38.140625 66.40625 31.78125 66.40625 
Q 25.390625 66.40625 21.84375 63.234375 
Q 18.3125 60.0625 18.3125 54.390625 
z
" id="DejaVuSans-56"/>
      </defs>
      <g transform="translate(37.875 101.169233)scale(0.1 -0.1)">
       <use xlink:href="#DejaVuSans-56"/>
       <use x="63.623047" xlink:href="#DejaVuSans-48"/>
      </g>
     </g>
    </g>
    <g id="ytick_6">
     <g id="line2d_25">
      <path clip-path="url(#p5d42082057)" d="M 57.6 48.70111 
L 414.72 48.70111 
" style="fill:none;stroke:#b0b0b0;stroke-linecap:square;stroke-width:0.8;"/>
     </g>
     <g id="line2d_26">
      <g>
       <use style="stroke:#000000;stroke-width:0.8;" x="57.6" xlink:href="#mf7aa1443ae" y="48.70111"/>
      </g>
     </g>
     <g id="text_14">
      <!-- 100 -->
      <g transform="translate(31.5125 52.500328)scale(0.1 -0.1)">
       <use xlink:href="#DejaVuSans-49"/>
       <use x="63.623047" xlink:href="#DejaVuSans-48"/>
       <use x="127.246094" xlink:href="#DejaVuSans-48"/>
      </g>
     </g>
    </g>
    <g id="text_15">
     <!-- Fitness -->
     <defs>
      <path d="M 9.8125 72.90625 
L 51.703125 72.90625 
L 51.703125 64.59375 
L 19.671875 64.59375 
L 19.671875 43.109375 
L 48.578125 43.109375 
L 48.578125 34.8125 
L 19.671875 34.8125 
L 19.671875 0 
L 9.8125 0 
z
" id="DejaVuSans-70"/>
     </defs>
     <g transform="translate(25.432812 191.845187)rotate(-90)scale(0.1 -0.1)">
      <use xlink:href="#DejaVuSans-70"/>
      <use x="50.269531" xlink:href="#DejaVuSans-105"/>
      <use x="78.052734" xlink:href="#DejaVuSans-116"/>
      <use x="117.261719" xlink:href="#DejaVuSans-110"/>
      <use x="180.640625" xlink:href="#DejaVuSans-101"/>
      <use x="242.164062" xlink:href="#DejaVuSans-115"/>
      <use x="294.263672" xlink:href="#DejaVuSans-115"/>
     </g>
    </g>
   </g>
   <g id="line2d_27">
    <path clip-path="url(#p5d42082057)" d="M 73.832727 264.693708 
L 74.918528 263.525654 
L 76.00433 262.941627 
L 77.090131 261.676235 
L 78.175932 249.703685 
L 79.261733 261.092209 
L 80.347534 256.419994 
L 81.433335 247.951604 
L 82.519137 253.791873 
L 83.604938 246.783551 
L 84.690739 250.287712 
L 85.77654 259.632141 
L 86.862341 242.695363 
L 87.948142 240.845944 
L 89.033943 258.658763 
L 90.119745 236.173729 
L 91.205546 244.447443 
L 92.291347 225.758584 
L 93.377148 240.261917 
L 94.462949 247.562253 
L 95.54875 235.005676 
L 96.634552 239.483215 
L 97.720353 247.075564 
L 98.806154 242.598025 
L 99.891955 236.076392 
L 100.977756 250.38505 
L 102.063557 229.846772 
L 103.149358 243.084714 
L 104.23516 242.987376 
L 105.320961 231.404177 
L 106.406762 238.412499 
L 107.492563 224.103841 
L 108.578364 251.066414 
L 109.664165 242.208674 
L 110.749967 248.827645 
L 111.835768 234.324311 
L 112.921569 226.439949 
L 114.00737 233.156257 
L 115.093171 234.032298 
L 116.178972 247.367578 
L 117.264773 245.810173 
L 118.350575 246.880888 
L 119.436376 223.71449 
L 120.522177 248.14628 
L 121.607978 253.110508 
L 122.693779 246.004848 
L 123.77958 249.898361 
L 124.865382 233.156257 
L 125.951183 241.624647 
L 127.036984 236.076392 
L 129.208586 218.166235 
L 130.294387 237.633797 
L 131.380189 248.730307 
L 132.46599 235.784378 
L 133.551791 225.077219 
L 134.637592 246.588875 
L 135.723393 236.076392 
L 136.809194 242.208674 
L 137.894995 229.554758 
L 138.980797 249.801023 
L 140.066598 241.332633 
L 141.152399 236.465743 
L 142.2382 250.482387 
L 143.324001 246.004848 
L 144.409802 240.067242 
L 145.495604 250.969076 
L 146.581405 239.775228 
L 147.667206 245.03147 
L 149.838808 257.296034 
L 150.924609 238.607175 
L 152.01041 243.474065 
L 153.096212 234.713662 
L 154.182013 242.598025 
L 155.267814 236.757756 
L 156.353615 243.084714 
L 157.439416 237.536459 
L 158.525217 240.651269 
L 159.611019 221.281045 
L 160.69682 222.059747 
L 161.782621 227.218651 
L 162.868422 240.651269 
L 163.954223 229.457421 
L 165.040024 232.669568 
L 166.125825 233.837622 
L 167.211627 229.554758 
L 168.297428 237.439121 
L 169.383229 238.899188 
L 170.46903 210.087197 
L 171.554831 210.865899 
L 172.640632 226.8293 
L 173.726434 224.979881 
L 174.812235 231.793528 
L 175.898036 230.722812 
L 176.983837 214.467398 
L 178.069638 224.785206 
L 179.155439 251.650441 
L 180.24124 221.573058 
L 181.327042 229.165407 
L 182.412843 233.93496 
L 183.498644 228.58138 
L 184.584445 246.102186 
L 185.670246 242.792701 
L 186.756047 245.03147 
L 187.841849 244.934132 
L 188.92765 241.721985 
L 190.013451 242.695363 
L 191.099252 251.553103 
L 192.185053 248.438293 
L 193.270854 242.792701 
L 194.356656 252.039792 
L 195.442457 252.429144 
L 196.528258 235.881716 
L 197.614059 261.48156 
L 198.69986 246.880888 
L 199.785661 251.747779 
L 200.871462 263.136303 
L 201.957264 258.074736 
L 203.043065 251.845117 
L 204.128866 256.614669 
L 205.214667 242.598025 
L 206.300468 230.917488 
L 207.386269 244.15543 
L 208.472071 235.492365 
L 209.557872 255.25194 
L 210.643673 238.607175 
L 211.729474 232.280217 
L 212.815275 233.740284 
L 213.901076 246.199524 
L 214.986877 228.58138 
L 216.072679 218.750262 
L 217.15848 227.023975 
L 218.244281 254.083886 
L 219.330082 243.27939 
L 220.415883 235.881716 
L 221.501684 210.671224 
L 222.587486 228.873394 
L 223.673287 241.332633 
L 224.759088 245.810173 
L 225.844889 241.235296 
L 226.93069 248.14628 
L 228.016491 235.200351 
L 229.102292 240.261917 
L 230.188094 248.048942 
L 231.273895 238.704513 
L 232.359696 219.139613 
L 234.531298 237.244445 
L 235.617099 250.774401 
L 236.702901 253.889211 
L 237.788702 254.667913 
L 238.874503 246.783551 
L 239.960304 254.570575 
L 241.046105 243.376727 
L 242.131906 234.226973 
L 243.217708 228.970732 
L 244.303509 234.518987 
L 245.38931 252.721157 
L 246.475111 232.572231 
L 247.560912 224.785206 
L 248.646713 249.898361 
L 249.732514 253.791873 
L 250.818316 242.792701 
L 251.904117 248.340956 
L 252.989918 246.978226 
L 254.075719 247.367578 
L 255.16152 257.296034 
L 256.247321 241.235296 
L 257.333123 255.154602 
L 258.418924 247.27024 
L 259.504725 255.057264 
L 260.590526 240.651269 
L 261.676327 248.438293 
L 262.762128 233.448271 
L 263.847929 240.16458 
L 264.933731 254.959927 
L 266.019532 256.419994 
L 267.105333 246.491537 
L 269.276935 240.845944 
L 270.362736 259.534804 
L 271.448538 245.615497 
L 272.534339 242.695363 
L 273.62014 240.748607 
L 274.705941 264.401694 
L 275.791742 246.394199 
L 276.877543 242.598025 
L 277.963344 230.722812 
L 279.049146 253.499859 
L 280.134947 234.616325 
L 281.220748 248.632969 
L 282.306549 249.801023 
L 283.39235 235.005676 
L 284.478151 234.518987 
L 285.563953 225.466571 
L 287.735555 238.80185 
L 288.821356 236.368405 
L 289.907157 239.775228 
L 290.992958 234.518987 
L 292.07876 235.68704 
L 293.164561 248.048942 
L 294.250362 250.482387 
L 295.336163 251.553103 
L 296.421964 253.889211 
L 297.507765 254.959927 
L 298.593566 253.402522 
L 299.679368 260.800195 
L 300.765169 250.774401 
L 302.936771 243.960754 
L 304.022572 241.04062 
L 305.108373 256.517332 
L 306.194175 256.225318 
L 307.279976 250.969076 
L 308.365777 250.677063 
L 309.451578 258.074736 
L 310.537379 250.190374 
L 311.62318 244.447443 
L 312.708981 266.34845 
L 313.794783 249.509009 
L 314.880584 239.775228 
L 315.966385 250.774401 
L 317.052186 254.3759 
L 318.137987 244.739457 
L 319.223788 231.404177 
L 320.30959 254.570575 
L 321.395391 248.243618 
L 322.481192 238.023148 
L 323.566993 252.13713 
L 325.738595 249.314334 
L 326.824396 251.747779 
L 327.910198 259.145452 
L 331.167601 244.15543 
L 332.253402 243.863416 
L 333.339203 255.057264 
L 334.425005 242.208674 
L 335.510806 246.880888 
L 336.596607 249.801023 
L 337.682408 239.385877 
L 338.768209 244.252768 
L 339.85401 257.685385 
L 340.939811 252.331806 
L 342.025613 256.809345 
L 343.111414 243.960754 
L 344.197215 244.934132 
L 345.283016 254.181224 
L 346.368817 253.791873 
L 347.454618 254.278562 
L 348.54042 225.563908 
L 349.626221 237.439121 
L 350.712022 236.660419 
L 351.797823 227.121313 
L 352.883624 242.013998 
L 353.969425 222.83845 
L 355.055227 255.835967 
L 356.141028 247.27024 
L 357.226829 234.616325 
L 358.31263 231.404177 
L 359.398431 241.819322 
L 360.484232 245.810173 
L 361.570033 257.49071 
L 362.655835 239.093864 
L 363.741636 230.041448 
L 364.827437 234.032298 
L 365.913238 242.792701 
L 366.999039 230.236123 
L 368.08484 238.315161 
L 369.170642 243.668741 
L 370.256443 236.952432 
L 371.342244 240.845944 
L 372.428045 252.234468 
L 373.513846 247.756929 
L 374.599647 258.756101 
L 375.685448 223.71449 
L 376.77125 236.660419 
L 377.857051 245.810173 
L 378.942852 243.376727 
L 380.028653 239.872566 
L 381.114454 258.269412 
L 382.200255 244.350105 
L 383.286057 247.464915 
L 384.371858 235.589703 
L 385.457659 257.198696 
L 386.54346 242.111336 
L 387.629261 237.147108 
L 388.715062 252.13713 
L 389.800863 250.287712 
L 390.886665 246.880888 
L 391.972466 241.527309 
L 393.058267 246.199524 
L 394.144068 245.810173 
L 395.229869 241.04062 
L 396.31567 238.315161 
L 397.401472 239.483215 
L 398.487273 223.422477 
L 398.487273 223.422477 
" style="fill:none;stroke:#0000ff;stroke-linecap:square;stroke-width:1.5;"/>
   </g>
   <g id="line2d_28">
    <path clip-path="url(#p5d42082057)" d="M 73.832727 285.799184 
L 74.918528 286.462292 
L 76.00433 285.555444 
L 77.090131 286.608019 
L 78.175932 276.511373 
L 79.261733 288.246841 
L 80.347534 287.368825 
L 81.433335 281.651579 
L 82.519137 287.65452 
L 83.604938 282.040805 
L 84.690739 277.867826 
L 85.77654 287.066212 
L 86.862341 267.373137 
L 87.948142 272.882359 
L 89.033943 286.091107 
L 90.119745 264.025613 
L 91.205546 273.803145 
L 92.291347 257.098335 
L 93.377148 277.515222 
L 94.462949 278.068923 
L 95.54875 261.928687 
L 96.634552 274.69341 
L 97.720353 285.206152 
L 98.806154 270.82364 
L 99.891955 272.03214 
L 100.977756 280.679791 
L 102.063557 253.570854 
L 103.149358 275.611567 
L 104.23516 271.653981 
L 105.320961 263.495553 
L 106.406762 271.916224 
L 107.492563 253.914648 
L 108.578364 289.540592 
L 109.664165 270.227088 
L 110.749967 277.941902 
L 111.835768 265.032192 
L 114.00737 251.235953 
L 115.093171 263.999699 
L 116.178972 284.819746 
L 117.264773 275.302083 
L 118.350575 279.391425 
L 119.436376 253.982636 
L 120.522177 276.453681 
L 121.607978 276.48172 
L 122.693779 271.729668 
L 123.77958 285.481421 
L 124.865382 280.985684 
L 125.951183 271.048371 
L 127.036984 263.616284 
L 128.122785 261.18608 
L 129.208586 256.170885 
L 130.294387 265.936177 
L 131.380189 279.954358 
L 132.46599 266.196174 
L 133.551791 258.599603 
L 134.637592 277.073796 
L 135.723393 262.635526 
L 136.809194 277.960415 
L 137.894995 257.092242 
L 138.980797 283.116159 
L 140.066598 269.271128 
L 141.152399 258.955622 
L 142.2382 277.883629 
L 143.324001 279.575246 
L 144.409802 270.6465 
L 145.495604 279.442008 
L 146.581405 272.11805 
L 147.667206 280.720879 
L 148.753007 284.918584 
L 149.838808 288.111715 
L 150.924609 270.383758 
L 152.01041 272.262699 
L 153.096212 268.207488 
L 154.182013 273.797184 
L 155.267814 282.859927 
L 156.353615 272.28054 
L 157.439416 276.018762 
L 158.525217 284.373826 
L 159.611019 258.121316 
L 160.69682 266.432765 
L 161.782621 264.238256 
L 162.868422 283.976545 
L 163.954223 269.208447 
L 165.040024 268.114433 
L 166.125825 262.744821 
L 167.211627 260.647447 
L 168.297428 277.312471 
L 169.383229 272.298115 
L 170.46903 255.937954 
L 171.554831 256.980193 
L 172.640632 265.107942 
L 173.726434 267.297095 
L 174.812235 265.451023 
L 175.898036 264.83968 
L 176.983837 240.868384 
L 178.069638 268.527045 
L 179.155439 278.528722 
L 181.327042 256.365012 
L 182.412843 269.335157 
L 183.498644 268.967305 
L 184.584445 274.600063 
L 185.670246 275.165974 
L 186.756047 282.860204 
L 187.841849 272.670114 
L 188.92765 275.954739 
L 190.013451 276.725474 
L 191.099252 280.907191 
L 192.185053 279.033349 
L 193.270854 272.946062 
L 194.356656 283.776098 
L 195.442457 285.247434 
L 196.528258 280.156619 
L 197.614059 289.142287 
L 198.69986 292.432903 
L 199.785661 288.826202 
L 200.871462 284.543098 
L 201.957264 285.858501 
L 203.043065 287.775296 
L 204.128866 289.952549 
L 206.300468 270.229914 
L 207.386269 275.05708 
L 208.472071 267.497711 
L 209.557872 285.881041 
L 210.643673 274.651616 
L 211.729474 267.638637 
L 213.901076 277.8955 
L 216.072679 250.733694 
L 217.15848 272.68734 
L 218.244281 286.271662 
L 219.330082 281.905946 
L 220.415883 268.666789 
L 221.501684 240.131633 
L 222.587486 265.016274 
L 223.673287 281.875204 
L 224.759088 277.828246 
L 225.844889 274.461012 
L 226.93069 283.721085 
L 228.016491 280.636781 
L 229.102292 282.65988 
L 230.188094 279.940409 
L 231.273895 276.59706 
L 232.359696 249.010428 
L 233.445497 270.634111 
L 234.531298 267.112406 
L 235.617099 280.819163 
L 236.702901 289.658174 
L 237.788702 284.327049 
L 238.874503 276.339644 
L 239.960304 287.822516 
L 241.046105 281.282275 
L 242.131906 278.908527 
L 243.217708 269.350791 
L 244.303509 272.672925 
L 245.38931 291.769757 
L 246.475111 266.284573 
L 247.560912 266.656759 
L 248.646713 281.309379 
L 249.732514 290.44909 
L 250.818316 273.266431 
L 251.904117 287.960433 
L 252.989918 280.50061 
L 254.075719 278.209074 
L 255.16152 288.698002 
L 256.247321 278.000908 
L 257.333123 287.974048 
L 258.418924 287.380032 
L 259.504725 284.805075 
L 260.590526 275.259754 
L 261.676327 280.195788 
L 262.762128 270.023981 
L 263.847929 276.01292 
L 264.933731 286.405312 
L 266.019532 295.488 
L 267.105333 288.111391 
L 268.191134 276.319156 
L 269.276935 273.403077 
L 270.362736 292.57866 
L 271.448538 277.758499 
L 272.534339 273.923359 
L 273.62014 274.927347 
L 274.705941 290.218059 
L 275.791742 277.612788 
L 276.877543 280.837787 
L 277.963344 275.302041 
L 279.049146 283.459356 
L 280.134947 268.69151 
L 281.220748 279.342084 
L 282.306549 287.799439 
L 283.39235 265.648385 
L 284.478151 274.110954 
L 285.563953 257.748989 
L 286.649754 274.323939 
L 287.735555 279.166656 
L 288.821356 278.021254 
L 289.907157 282.143012 
L 290.992958 281.699618 
L 292.07876 279.194319 
L 293.164561 291.834297 
L 294.250362 284.459557 
L 295.336163 283.340121 
L 296.421964 292.810461 
L 297.507765 295.342098 
L 300.765169 283.302419 
L 301.85097 282.170983 
L 302.936771 276.856614 
L 304.022572 275.875318 
L 305.108373 284.022799 
L 306.194175 288.298975 
L 307.279976 281.520746 
L 308.365777 280.480559 
L 309.451578 288.774594 
L 310.537379 281.79145 
L 311.62318 279.455782 
L 312.708981 292.056322 
L 314.880584 273.403434 
L 315.966385 280.549908 
L 317.052186 286.335625 
L 318.137987 275.04014 
L 319.223788 260.031423 
L 320.30959 286.684677 
L 321.395391 279.649206 
L 322.481192 267.450736 
L 323.566993 282.717318 
L 324.652794 280.342352 
L 325.738595 280.50104 
L 326.824396 286.586557 
L 327.910198 287.641667 
L 328.995999 293.697989 
L 330.0818 290.845082 
L 331.167601 277.169453 
L 332.253402 277.680426 
L 333.339203 288.529301 
L 334.425005 282.283726 
L 335.510806 283.489999 
L 336.596607 287.643279 
L 337.682408 277.978078 
L 338.768209 287.837287 
L 339.85401 287.831205 
L 340.939811 281.089487 
L 342.025613 288.93908 
L 343.111414 277.79373 
L 344.197215 288.686801 
L 345.283016 289.311139 
L 346.368817 286.056971 
L 347.454618 285.275114 
L 348.54042 263.778886 
L 349.626221 270.167503 
L 350.712022 273.438657 
L 351.797823 264.203825 
L 352.883624 280.558296 
L 353.969425 266.754309 
L 355.055227 287.967176 
L 356.141028 282.088071 
L 357.226829 273.215399 
L 358.31263 266.153366 
L 359.398431 278.95392 
L 360.484232 277.612984 
L 361.570033 290.196793 
L 363.741636 275.572866 
L 364.827437 270.294257 
L 365.913238 282.038552 
L 366.999039 268.097903 
L 368.08484 268.575481 
L 369.170642 285.559749 
L 370.256443 276.574301 
L 371.342244 283.831802 
L 373.513846 288.172637 
L 374.599647 288.818517 
L 375.685448 275.192849 
L 376.77125 274.032814 
L 377.857051 281.58099 
L 378.942852 288.284177 
L 380.028653 288.0478 
L 381.114454 289.021998 
L 382.200255 271.500201 
L 383.286057 283.147687 
L 384.371858 278.627987 
L 385.457659 288.850102 
L 386.54346 280.680452 
L 387.629261 277.275084 
L 388.715062 294.099775 
L 389.800863 289.626399 
L 390.886665 282.266094 
L 391.972466 281.897747 
L 393.058267 282.857775 
L 394.144068 291.398156 
L 395.229869 283.068015 
L 396.31567 279.410396 
L 397.401472 286.427899 
L 398.487273 283.952195 
L 398.487273 283.952195 
" style="fill:none;stroke:#008000;stroke-dasharray:9.6,2.4,1.5,2.4;stroke-dashoffset:0;stroke-width:1.5;"/>
   </g>
   <g id="line2d_29">
    <path clip-path="url(#p5d42082057)" d="M 73.832727 243.588231 
L 74.918528 240.589016 
L 76.00433 240.32781 
L 77.090131 236.744452 
L 78.175932 222.895997 
L 79.261733 233.937577 
L 80.347534 225.471162 
L 81.433335 214.25163 
L 82.519137 219.929226 
L 83.604938 211.526297 
L 84.690739 222.707597 
L 85.77654 232.198071 
L 86.862341 218.017588 
L 87.948142 208.809529 
L 89.033943 231.22642 
L 90.119745 208.321846 
L 91.205546 215.091741 
L 92.291347 194.418833 
L 93.377148 203.008613 
L 94.462949 217.055584 
L 95.54875 208.082664 
L 96.634552 204.27302 
L 97.720353 208.944976 
L 98.806154 214.37241 
L 99.891955 200.120643 
L 100.977756 220.090308 
L 102.063557 206.12269 
L 103.149358 210.557861 
L 104.23516 214.320772 
L 105.320961 199.3128 
L 106.406762 204.908774 
L 107.492563 194.293035 
L 108.578364 212.592237 
L 109.664165 214.19026 
L 110.749967 219.713387 
L 111.835768 203.616431 
L 112.921569 194.835275 
L 114.00737 215.076562 
L 115.093171 204.064896 
L 117.264773 216.318262 
L 118.350575 214.370352 
L 119.436376 193.446344 
L 120.522177 219.838879 
L 121.607978 229.739297 
L 122.693779 220.280029 
L 123.77958 214.3153 
L 124.865382 185.326831 
L 125.951183 212.200923 
L 127.036984 208.5365 
L 128.122785 192.861871 
L 129.208586 180.161585 
L 130.294387 209.331416 
L 131.380189 217.506255 
L 132.46599 205.372582 
L 133.551791 191.554835 
L 134.637592 216.103954 
L 135.723393 209.517257 
L 136.809194 206.456932 
L 137.894995 202.017275 
L 138.980797 216.485887 
L 140.066598 213.394139 
L 141.152399 213.975864 
L 142.2382 223.081146 
L 143.324001 212.43445 
L 144.409802 209.487984 
L 145.495604 222.496145 
L 146.581405 207.432407 
L 147.667206 209.342061 
L 149.838808 226.480353 
L 150.924609 206.830591 
L 152.01041 214.685431 
L 153.096212 201.219837 
L 154.182013 211.398866 
L 155.267814 190.655586 
L 156.353615 213.888888 
L 157.439416 199.054156 
L 158.525217 196.928711 
L 159.611019 184.440774 
L 160.69682 177.686729 
L 161.782621 190.199046 
L 162.868422 197.325992 
L 163.954223 189.706395 
L 166.125825 204.930423 
L 167.211627 198.46207 
L 168.297428 197.565771 
L 169.383229 205.500261 
L 170.46903 164.236439 
L 171.554831 164.751605 
L 172.640632 188.550657 
L 173.726434 182.662668 
L 174.812235 198.136034 
L 175.898036 196.605945 
L 176.983837 188.066413 
L 178.069638 181.043366 
L 179.155439 224.77216 
L 180.24124 176.196097 
L 181.327042 201.965803 
L 182.412843 198.534763 
L 183.498644 188.195455 
L 184.584445 217.604309 
L 185.670246 210.419427 
L 186.756047 207.202736 
L 187.841849 217.198151 
L 188.92765 207.489231 
L 190.013451 208.665252 
L 191.099252 222.199015 
L 192.185053 217.843238 
L 193.270854 212.639339 
L 194.356656 220.303487 
L 195.442457 219.610853 
L 196.528258 191.606814 
L 197.614059 233.820833 
L 198.69986 201.328874 
L 199.785661 214.669356 
L 200.871462 241.729507 
L 201.957264 230.290972 
L 203.043065 215.914937 
L 204.128866 223.27679 
L 205.214667 205.483589 
L 206.300468 191.605062 
L 207.386269 213.25378 
L 208.472071 203.487018 
L 209.557872 224.622839 
L 210.643673 202.562733 
L 211.729474 196.921797 
L 212.815275 194.966834 
L 213.901076 214.503547 
L 214.986877 193.117007 
L 216.072679 186.766829 
L 217.15848 181.360611 
L 218.244281 221.896111 
L 219.330082 204.652833 
L 220.415883 203.096643 
L 221.501684 181.210814 
L 222.587486 192.730514 
L 223.673287 200.790063 
L 224.759088 213.792099 
L 225.844889 208.009579 
L 226.93069 212.571475 
L 228.016491 189.763921 
L 229.102292 197.863954 
L 230.188094 216.157475 
L 231.273895 200.811965 
L 232.359696 189.268798 
L 233.445497 185.944623 
L 234.531298 207.376485 
L 235.617099 220.729639 
L 236.702901 218.120248 
L 237.788702 225.008778 
L 238.874503 217.227458 
L 239.960304 221.318635 
L 242.131906 189.54542 
L 243.217708 188.590672 
L 244.303509 196.365049 
L 245.38931 213.672557 
L 247.560912 182.913653 
L 248.646713 218.487343 
L 249.732514 217.134656 
L 250.818316 212.31897 
L 251.904117 208.721478 
L 252.989918 213.455842 
L 254.075719 216.526081 
L 255.16152 225.894066 
L 256.247321 204.469683 
L 257.333123 222.335157 
L 258.418924 207.160448 
L 259.504725 225.309454 
L 260.590526 206.042784 
L 261.676327 216.680798 
L 262.762128 196.872561 
L 263.847929 204.316239 
L 264.933731 223.514541 
L 266.019532 217.351987 
L 267.105333 204.871684 
L 268.191134 211.018326 
L 269.276935 208.288812 
L 270.362736 226.490947 
L 271.448538 213.472495 
L 272.534339 211.467367 
L 273.62014 206.569866 
L 274.705941 238.585329 
L 275.791742 215.17561 
L 276.877543 204.358262 
L 277.963344 186.143583 
L 279.049146 223.540363 
L 280.134947 200.541139 
L 281.220748 217.923854 
L 282.306549 211.802606 
L 283.39235 204.362967 
L 284.478151 194.92702 
L 285.563953 193.184152 
L 286.649754 190.43117 
L 287.735555 198.437045 
L 288.821356 194.715556 
L 289.907157 197.407445 
L 290.992958 187.338356 
L 292.07876 192.179762 
L 294.250362 216.505217 
L 295.336163 219.766086 
L 296.421964 214.96796 
L 297.507765 214.577755 
L 298.593566 215.43878 
L 299.679368 234.137097 
L 300.765169 218.246383 
L 301.85097 212.564172 
L 302.936771 211.064895 
L 304.022572 206.205922 
L 305.108373 229.011864 
L 306.194175 224.151661 
L 307.279976 220.417407 
L 308.365777 220.873567 
L 309.451578 227.374879 
L 311.62318 209.439105 
L 312.708981 240.640579 
L 313.794783 216.071524 
L 314.880584 206.147023 
L 315.966385 220.998894 
L 317.052186 222.416175 
L 318.137987 214.438774 
L 319.223788 202.77693 
L 320.30959 222.456473 
L 321.395391 216.83803 
L 322.481192 208.59556 
L 323.566993 221.556943 
L 324.652794 221.206449 
L 325.738595 218.127628 
L 326.824396 216.909001 
L 327.910198 230.649237 
L 328.995999 214.275108 
L 330.0818 206.615532 
L 331.167601 211.141407 
L 332.253402 210.046407 
L 333.339203 221.585228 
L 334.425005 202.133621 
L 335.510806 210.271778 
L 336.596607 211.958767 
L 337.682408 200.793676 
L 338.768209 200.668249 
L 339.85401 227.539566 
L 340.939811 223.574125 
L 342.025613 224.67961 
L 343.111414 210.127778 
L 344.197215 201.181464 
L 345.283016 219.051309 
L 346.368817 221.526775 
L 347.454618 223.28201 
L 348.54042 187.348931 
L 349.626221 204.710739 
L 350.712022 199.88218 
L 351.797823 190.038802 
L 352.883624 203.469701 
L 353.969425 178.92259 
L 355.055227 223.704758 
L 356.141028 212.452409 
L 357.226829 196.01725 
L 358.31263 196.654988 
L 359.398431 204.684725 
L 360.484232 214.007362 
L 361.570033 224.784626 
L 362.655835 195.263307 
L 363.741636 184.510029 
L 364.827437 197.770338 
L 365.913238 203.546849 
L 366.999039 192.374343 
L 368.08484 208.054842 
L 369.170642 201.777732 
L 370.256443 197.330563 
L 371.342244 197.860087 
L 372.428045 218.474382 
L 373.513846 207.34122 
L 374.599647 228.693685 
L 375.685448 172.236131 
L 376.77125 199.288023 
L 377.857051 210.039356 
L 378.942852 198.469278 
L 380.028653 191.697332 
L 381.114454 227.516826 
L 382.200255 217.20001 
L 383.286057 211.782144 
L 384.371858 192.551419 
L 385.457659 225.54729 
L 386.54346 203.542219 
L 387.629261 197.019131 
L 388.715062 210.174486 
L 389.800863 210.949024 
L 390.886665 211.495683 
L 391.972466 201.156871 
L 393.058267 209.541273 
L 394.144068 200.222189 
L 395.229869 199.013224 
L 396.31567 197.219927 
L 397.401472 192.538531 
L 398.487273 162.892758 
L 398.487273 162.892758 
" style="fill:none;stroke:#008000;stroke-dasharray:9.6,2.4,1.5,2.4;stroke-dashoffset:0;stroke-width:1.5;"/>
   </g>
   <g id="line2d_30">
    <path clip-path="url(#p5d42082057)" d="M 73.832727 216.60883 
L 74.918528 202.008159 
L 76.00433 219.042275 
L 77.090131 202.008159 
L 78.175932 182.540597 
L 79.261733 194.707823 
L 80.347534 197.141268 
L 81.433335 184.974042 
L 82.519137 155.772699 
L 83.604938 172.806816 
L 84.690739 180.107152 
L 85.77654 182.540597 
L 86.862341 192.274378 
L 87.948142 175.240261 
L 89.033943 187.407487 
L 90.119745 158.206145 
L 91.205546 184.974042 
L 92.291347 146.038918 
L 93.377148 158.206145 
L 94.462949 194.707823 
L 95.54875 172.806816 
L 96.634552 180.107152 
L 97.720353 172.806816 
L 98.806154 187.407487 
L 99.891955 163.073035 
L 100.977756 197.141268 
L 102.063557 197.141268 
L 103.149358 187.407487 
L 104.23516 199.574713 
L 105.320961 155.772699 
L 106.406762 172.806816 
L 107.492563 150.905809 
L 108.578364 160.63959 
L 109.664165 184.974042 
L 110.749967 177.673706 
L 111.835768 175.240261 
L 112.921569 165.50648 
L 114.00737 204.441604 
L 115.093171 153.339254 
L 116.178972 175.240261 
L 117.264773 177.673706 
L 118.350575 184.974042 
L 119.436376 155.772699 
L 120.522177 202.008159 
L 121.607978 204.441604 
L 122.693779 192.274378 
L 123.77958 160.63959 
L 124.865382 73.035562 
L 125.951183 189.840932 
L 127.036984 180.107152 
L 128.122785 165.50648 
L 129.208586 153.339254 
L 130.294387 192.274378 
L 131.380189 177.673706 
L 132.46599 184.974042 
L 133.551791 175.240261 
L 134.637592 194.707823 
L 135.723393 184.974042 
L 136.809194 180.107152 
L 137.894995 172.806816 
L 138.980797 172.806816 
L 140.066598 180.107152 
L 141.152399 202.008159 
L 142.2382 209.308494 
L 143.324001 165.50648 
L 144.409802 180.107152 
L 145.495604 199.574713 
L 146.581405 155.772699 
L 147.667206 160.63959 
L 148.753007 160.63959 
L 149.838808 206.875049 
L 150.924609 184.974042 
L 152.01041 204.441604 
L 153.096212 150.905809 
L 154.182013 189.840932 
L 155.267814 138.738583 
L 156.353615 177.673706 
L 157.439416 180.107152 
L 158.525217 138.738583 
L 159.611019 148.472364 
L 160.69682 119.271021 
L 161.782621 121.704466 
L 162.868422 104.67035 
L 165.040024 180.107152 
L 166.125825 170.373371 
L 167.211627 180.107152 
L 168.297428 109.53724 
L 169.383229 172.806816 
L 170.46903 58.43489 
L 171.554831 92.503124 
L 172.640632 163.073035 
L 173.726434 138.738583 
L 174.812235 167.939925 
L 175.898036 175.240261 
L 176.983837 150.905809 
L 178.069638 146.038918 
L 179.155439 209.308494 
L 180.24124 141.172028 
L 181.327042 184.974042 
L 182.412843 160.63959 
L 183.498644 131.438247 
L 184.584445 189.840932 
L 185.670246 180.107152 
L 186.756047 165.50648 
L 187.841849 184.974042 
L 188.92765 175.240261 
L 190.013451 175.240261 
L 191.099252 187.407487 
L 192.185053 192.274378 
L 193.270854 170.373371 
L 194.356656 177.673706 
L 195.442457 165.50648 
L 196.528258 143.605473 
L 197.614059 202.008159 
L 198.69986 97.370014 
L 199.785661 148.472364 
L 200.871462 221.47572 
L 201.957264 206.875049 
L 203.043065 143.605473 
L 204.128866 180.107152 
L 205.214667 167.939925 
L 206.300468 129.004802 
L 207.386269 194.707823 
L 208.472071 192.274378 
L 209.557872 202.008159 
L 210.643673 138.738583 
L 211.729474 172.806816 
L 212.815275 150.905809 
L 213.901076 187.407487 
L 214.986877 160.63959 
L 217.15848 150.905809 
L 218.244281 187.407487 
L 219.330082 153.339254 
L 220.415883 189.840932 
L 221.501684 155.772699 
L 222.587486 163.073035 
L 223.673287 146.038918 
L 224.759088 175.240261 
L 225.844889 182.540597 
L 226.93069 160.63959 
L 228.016491 126.571357 
L 229.102292 150.905809 
L 230.188094 187.407487 
L 232.359696 163.073035 
L 233.445497 136.305138 
L 234.531298 172.806816 
L 235.617099 194.707823 
L 236.702901 182.540597 
L 237.788702 187.407487 
L 238.874503 197.141268 
L 239.960304 148.472364 
L 241.046105 160.63959 
L 242.131906 153.339254 
L 243.217708 165.50648 
L 244.303509 138.738583 
L 245.38931 175.240261 
L 246.475111 172.806816 
L 247.560912 146.038918 
L 248.646713 175.240261 
L 249.732514 148.472364 
L 250.818316 187.407487 
L 251.904117 133.871692 
L 252.989918 167.939925 
L 254.075719 194.707823 
L 255.16152 189.840932 
L 256.247321 170.373371 
L 257.333123 206.875049 
L 258.418924 124.137911 
L 259.504725 189.840932 
L 260.590526 177.673706 
L 261.676327 192.274378 
L 262.762128 165.50648 
L 263.847929 175.240261 
L 264.933731 189.840932 
L 266.019532 148.472364 
L 267.105333 158.206145 
L 268.191134 182.540597 
L 269.276935 187.407487 
L 270.362736 187.407487 
L 271.448538 172.806816 
L 272.534339 175.240261 
L 273.62014 192.274378 
L 274.705941 202.008159 
L 275.791742 184.974042 
L 276.877543 160.63959 
L 277.963344 129.004802 
L 279.049146 177.673706 
L 280.134947 155.772699 
L 281.220748 192.274378 
L 282.306549 167.939925 
L 283.39235 184.974042 
L 284.478151 163.073035 
L 285.563953 172.806816 
L 286.649754 121.704466 
L 287.735555 165.50648 
L 288.821356 158.206145 
L 289.907157 155.772699 
L 290.992958 133.871692 
L 292.07876 143.605473 
L 293.164561 165.50648 
L 294.250362 158.206145 
L 295.336163 180.107152 
L 296.421964 163.073035 
L 297.507765 131.438247 
L 298.593566 158.206145 
L 299.679368 206.875049 
L 300.765169 189.840932 
L 301.85097 177.673706 
L 302.936771 177.673706 
L 304.022572 189.840932 
L 305.108373 206.875049 
L 306.194175 192.274378 
L 307.279976 199.574713 
L 308.365777 192.274378 
L 309.451578 211.741939 
L 310.537379 199.574713 
L 311.62318 184.974042 
L 312.708981 211.741939 
L 313.794783 189.840932 
L 314.880584 189.840932 
L 315.966385 206.875049 
L 317.052186 197.141268 
L 318.137987 202.008159 
L 319.223788 192.274378 
L 320.30959 192.274378 
L 321.395391 189.840932 
L 322.481192 192.274378 
L 323.566993 204.441604 
L 324.652794 202.008159 
L 325.738595 187.407487 
L 326.824396 177.673706 
L 327.910198 206.875049 
L 328.995999 150.905809 
L 330.0818 160.63959 
L 331.167601 187.407487 
L 332.253402 184.974042 
L 333.339203 194.707823 
L 334.425005 177.673706 
L 335.510806 177.673706 
L 336.596607 158.206145 
L 337.682408 153.339254 
L 338.768209 99.803459 
L 339.85401 199.574713 
L 340.939811 199.574713 
L 342.025613 197.141268 
L 343.111414 175.240261 
L 344.197215 143.605473 
L 345.283016 172.806816 
L 346.368817 189.840932 
L 347.454618 197.141268 
L 348.54042 121.704466 
L 349.626221 148.472364 
L 350.712022 165.50648 
L 351.797823 141.172028 
L 352.883624 167.939925 
L 353.969425 146.038918 
L 355.055227 204.441604 
L 356.141028 175.240261 
L 357.226829 138.738583 
L 358.31263 153.339254 
L 359.398431 175.240261 
L 360.484232 192.274378 
L 361.570033 187.407487 
L 362.655835 155.772699 
L 363.741636 136.305138 
L 364.827437 167.939925 
L 365.913238 141.172028 
L 366.999039 160.63959 
L 368.08484 194.707823 
L 370.256443 143.605473 
L 371.342244 143.605473 
L 372.428045 184.974042 
L 373.513846 129.004802 
L 374.599647 194.707823 
L 375.685448 53.568 
L 376.77125 167.939925 
L 377.857051 167.939925 
L 378.942852 143.605473 
L 380.028653 124.137911 
L 381.114454 184.974042 
L 382.200255 187.407487 
L 384.371858 107.103795 
L 385.457659 180.107152 
L 386.54346 155.772699 
L 387.629261 109.53724 
L 388.715062 104.67035 
L 390.886665 184.974042 
L 391.972466 170.373371 
L 393.058267 175.240261 
L 394.144068 104.67035 
L 396.31567 165.50648 
L 397.401472 111.970685 
L 398.487273 77.902452 
L 398.487273 77.902452 
" style="fill:none;stroke:#ff0000;stroke-linecap:square;stroke-width:1.5;"/>
   </g>
   <g id="patch_3">
    <path d="M 57.6 307.584 
L 57.6 41.472 
" style="fill:none;stroke:#000000;stroke-linecap:square;stroke-linejoin:miter;stroke-width:0.8;"/>
   </g>
   <g id="patch_4">
    <path d="M 414.72 307.584 
L 414.72 41.472 
" style="fill:none;stroke:#000000;stroke-linecap:square;stroke-linejoin:miter;stroke-width:0.8;"/>
   </g>
   <g id="patch_5">
    <path d="M 57.6 307.584 
L 414.72 307.584 
" style="fill:none;stroke:#000000;stroke-linecap:square;stroke-linejoin:miter;stroke-width:0.8;"/>
   </g>
   <g id="patch_6">
    <path d="M 57.6 41.472 
L 414.72 41.472 
" style="fill:none;stroke:#000000;stroke-linecap:square;stroke-linejoin:miter;stroke-width:0.8;"/>
   </g>
   <g id="text_16">
    <!-- Population's average and best fitness -->
    <defs>
     <path d="M 19.671875 64.796875 
L 19.671875 37.40625 
L 32.078125 37.40625 
Q 38.96875 37.40625 42.71875 40.96875 
Q 46.484375 44.53125 46.484375 51.125 
Q 46.484375 57.671875 42.71875 61.234375 
Q 38.96875 64.796875 32.078125 64.796875 
z
M 9.8125 72.90625 
L 32.078125 72.90625 
Q 44.34375 72.90625 50.609375 67.359375 
Q 56.890625 61.8125 56.890625 51.125 
Q 56.890625 40.328125 50.609375 34.8125 
Q 44.34375 29.296875 32.078125 29.296875 
L 19.671875 29.296875 
L 19.671875 0 
L 9.8125 0 
z
" id="DejaVuSans-80"/>
     <path d="M 18.109375 8.203125 
L 18.109375 -20.796875 
L 9.078125 -20.796875 
L 9.078125 54.6875 
L 18.109375 54.6875 
L 18.109375 46.390625 
Q 20.953125 51.265625 25.265625 53.625 
Q 29.59375 56 35.59375 56 
Q 45.5625 56 51.78125 48.09375 
Q 58.015625 40.1875 58.015625 27.296875 
Q 58.015625 14.40625 51.78125 6.484375 
Q 45.5625 -1.421875 35.59375 -1.421875 
Q 29.59375 -1.421875 25.265625 0.953125 
Q 20.953125 3.328125 18.109375 8.203125 
z
M 48.6875 27.296875 
Q 48.6875 37.203125 44.609375 42.84375 
Q 40.53125 48.484375 33.40625 48.484375 
Q 26.265625 48.484375 22.1875 42.84375 
Q 18.109375 37.203125 18.109375 27.296875 
Q 18.109375 17.390625 22.1875 11.75 
Q 26.265625 6.109375 33.40625 6.109375 
Q 40.53125 6.109375 44.609375 11.75 
Q 48.6875 17.390625 48.6875 27.296875 
z
" id="DejaVuSans-112"/>
     <path d="M 8.5 21.578125 
L 8.5 54.6875 
L 17.484375 54.6875 
L 17.484375 21.921875 
Q 17.484375 14.15625 20.5 10.265625 
Q 23.53125 6.390625 29.59375 6.390625 
Q 36.859375 6.390625 41.078125 11.03125 
Q 45.3125 15.671875 45.3125 23.6875 
L 45.3125 54.6875 
L 54.296875 54.6875 
L 54.296875 0 
L 45.3125 0 
L 45.3125 8.40625 
Q 42.046875 3.421875 37.71875 1 
Q 33.40625 -1.421875 27.6875 -1.421875 
Q 18.265625 -1.421875 13.375 4.4375 
Q 8.5 10.296875 8.5 21.578125 
z
M 31.109375 56 
z
" id="DejaVuSans-117"/>
     <path d="M 9.421875 75.984375 
L 18.40625 75.984375 
L 18.40625 0 
L 9.421875 0 
z
" id="DejaVuSans-108"/>
     <path d="M 17.921875 72.90625 
L 17.921875 45.796875 
L 9.625 45.796875 
L 9.625 72.90625 
z
" id="DejaVuSans-39"/>
     <path id="DejaVuSans-32"/>
     <path d="M 2.984375 54.6875 
L 12.5 54.6875 
L 29.59375 8.796875 
L 46.6875 54.6875 
L 56.203125 54.6875 
L 35.6875 0 
L 23.484375 0 
z
" id="DejaVuSans-118"/>
     <path d="M 45.40625 27.984375 
Q 45.40625 37.75 41.375 43.109375 
Q 37.359375 48.484375 30.078125 48.484375 
Q 22.859375 48.484375 18.828125 43.109375 
Q 14.796875 37.75 14.796875 27.984375 
Q 14.796875 18.265625 18.828125 12.890625 
Q 22.859375 7.515625 30.078125 7.515625 
Q 37.359375 7.515625 41.375 12.890625 
Q 45.40625 18.265625 45.40625 27.984375 
z
M 54.390625 6.78125 
Q 54.390625 -7.171875 48.1875 -13.984375 
Q 42 -20.796875 29.203125 -20.796875 
Q 24.46875 -20.796875 20.265625 -20.09375 
Q 16.0625 -19.390625 12.109375 -17.921875 
L 12.109375 -9.1875 
Q 16.0625 -11.328125 19.921875 -12.34375 
Q 23.78125 -13.375 27.78125 -13.375 
Q 36.625 -13.375 41.015625 -8.765625 
Q 45.40625 -4.15625 45.40625 5.171875 
L 45.40625 9.625 
Q 42.625 4.78125 38.28125 2.390625 
Q 33.9375 0 27.875 0 
Q 17.828125 0 11.671875 7.65625 
Q 5.515625 15.328125 5.515625 27.984375 
Q 5.515625 40.671875 11.671875 48.328125 
Q 17.828125 56 27.875 56 
Q 33.9375 56 38.28125 53.609375 
Q 42.625 51.21875 45.40625 46.390625 
L 45.40625 54.6875 
L 54.390625 54.6875 
z
" id="DejaVuSans-103"/>
     <path d="M 45.40625 46.390625 
L 45.40625 75.984375 
L 54.390625 75.984375 
L 54.390625 0 
L 45.40625 0 
L 45.40625 8.203125 
Q 42.578125 3.328125 38.25 0.953125 
Q 33.9375 -1.421875 27.875 -1.421875 
Q 17.96875 -1.421875 11.734375 6.484375 
Q 5.515625 14.40625 5.515625 27.296875 
Q 5.515625 40.1875 11.734375 48.09375 
Q 17.96875 56 27.875 56 
Q 33.9375 56 38.25 53.625 
Q 42.578125 51.265625 45.40625 46.390625 
z
M 14.796875 27.296875 
Q 14.796875 17.390625 18.875 11.75 
Q 22.953125 6.109375 30.078125 6.109375 
Q 37.203125 6.109375 41.296875 11.75 
Q 45.40625 17.390625 45.40625 27.296875 
Q 45.40625 37.203125 41.296875 42.84375 
Q 37.203125 48.484375 30.078125 48.484375 
Q 22.953125 48.484375 18.875 42.84375 
Q 14.796875 37.203125 14.796875 27.296875 
z
" id="DejaVuSans-100"/>
     <path d="M 48.6875 27.296875 
Q 48.6875 37.203125 44.609375 42.84375 
Q 40.53125 48.484375 33.40625 48.484375 
Q 26.265625 48.484375 22.1875 42.84375 
Q 18.109375 37.203125 18.109375 27.296875 
Q 18.109375 17.390625 22.1875 11.75 
Q 26.265625 6.109375 33.40625 6.109375 
Q 40.53125 6.109375 44.609375 11.75 
Q 48.6875 17.390625 48.6875 27.296875 
z
M 18.109375 46.390625 
Q 20.953125 51.265625 25.265625 53.625 
Q 29.59375 56 35.59375 56 
Q 45.5625 56 51.78125 48.09375 
Q 58.015625 40.1875 58.015625 27.296875 
Q 58.015625 14.40625 51.78125 6.484375 
Q 45.5625 -1.421875 35.59375 -1.421875 
Q 29.59375 -1.421875 25.265625 0.953125 
Q 20.953125 3.328125 18.109375 8.203125 
L 18.109375 0 
L 9.078125 0 
L 9.078125 75.984375 
L 18.109375 75.984375 
z
" id="DejaVuSans-98"/>
     <path d="M 37.109375 75.984375 
L 37.109375 68.5 
L 28.515625 68.5 
Q 23.6875 68.5 21.796875 66.546875 
Q 19.921875 64.59375 19.921875 59.515625 
L 19.921875 54.6875 
L 34.71875 54.6875 
L 34.71875 47.703125 
L 19.921875 47.703125 
L 19.921875 0 
L 10.890625 0 
L 10.890625 47.703125 
L 2.296875 47.703125 
L 2.296875 54.6875 
L 10.890625 54.6875 
L 10.890625 58.5 
Q 10.890625 67.625 15.140625 71.796875 
Q 19.390625 75.984375 28.609375 75.984375 
z
" id="DejaVuSans-102"/>
    </defs>
    <g transform="translate(123.529687 35.472)scale(0.12 -0.12)">
     <use xlink:href="#DejaVuSans-80"/>
     <use x="56.677734" xlink:href="#DejaVuSans-111"/>
     <use x="117.859375" xlink:href="#DejaVuSans-112"/>
     <use x="181.335938" xlink:href="#DejaVuSans-117"/>
     <use x="244.714844" xlink:href="#DejaVuSans-108"/>
     <use x="272.498047" xlink:href="#DejaVuSans-97"/>
     <use x="333.777344" xlink:href="#DejaVuSans-116"/>
     <use x="372.986328" xlink:href="#DejaVuSans-105"/>
     <use x="400.769531" xlink:href="#DejaVuSans-111"/>
     <use x="461.951172" xlink:href="#DejaVuSans-110"/>
     <use x="525.330078" xlink:href="#DejaVuSans-39"/>
     <use x="552.820312" xlink:href="#DejaVuSans-115"/>
     <use x="604.919922" xlink:href="#DejaVuSans-32"/>
     <use x="636.707031" xlink:href="#DejaVuSans-97"/>
     <use x="697.986328" xlink:href="#DejaVuSans-118"/>
     <use x="757.166016" xlink:href="#DejaVuSans-101"/>
     <use x="818.689453" xlink:href="#DejaVuSans-114"/>
     <use x="859.802734" xlink:href="#DejaVuSans-97"/>
     <use x="921.082031" xlink:href="#DejaVuSans-103"/>
     <use x="984.558594" xlink:href="#DejaVuSans-101"/>
     <use x="1046.082031" xlink:href="#DejaVuSans-32"/>
     <use x="1077.869141" xlink:href="#DejaVuSans-97"/>
     <use x="1139.148438" xlink:href="#DejaVuSans-110"/>
     <use x="1202.527344" xlink:href="#DejaVuSans-100"/>
     <use x="1266.003906" xlink:href="#DejaVuSans-32"/>
     <use x="1297.791016" xlink:href="#DejaVuSans-98"/>
     <use x="1361.267578" xlink:href="#DejaVuSans-101"/>
     <use x="1422.791016" xlink:href="#DejaVuSans-115"/>
     <use x="1474.890625" xlink:href="#DejaVuSans-116"/>
     <use x="1514.099609" xlink:href="#DejaVuSans-32"/>
     <use x="1545.886719" xlink:href="#DejaVuSans-102"/>
     <use x="1581.091797" xlink:href="#DejaVuSans-105"/>
     <use x="1608.875" xlink:href="#DejaVuSans-116"/>
     <use x="1648.083984" xlink:href="#DejaVuSans-110"/>
     <use x="1711.462891" xlink:href="#DejaVuSans-101"/>
     <use x="1772.986328" xlink:href="#DejaVuSans-115"/>
     <use x="1825.085938" xlink:href="#DejaVuSans-115"/>
    </g>
   </g>
   <g id="legend_1">
    <g id="patch_7">
     <path d="M 64.6 108.1845 
L 137.540625 108.1845 
Q 139.540625 108.1845 139.540625 106.1845 
L 139.540625 48.472 
Q 139.540625 46.472 137.540625 46.472 
L 64.6 46.472 
Q 62.6 46.472 62.6 48.472 
L 62.6 106.1845 
Q 62.6 108.1845 64.6 108.1845 
z
" style="fill:#ffffff;opacity:0.8;stroke:#cccccc;stroke-linejoin:miter;"/>
    </g>
    <g id="line2d_31">
     <path d="M 66.6 54.570438 
L 86.6 54.570438 
" style="fill:none;stroke:#0000ff;stroke-linecap:square;stroke-width:1.5;"/>
    </g>
    <g id="line2d_32"/>
    <g id="text_17">
     <!-- average -->
     <g transform="translate(94.6 58.070438)scale(0.1 -0.1)">
      <use xlink:href="#DejaVuSans-97"/>
      <use x="61.279297" xlink:href="#DejaVuSans-118"/>
      <use x="120.458984" xlink:href="#DejaVuSans-101"/>
      <use x="181.982422" xlink:href="#DejaVuSans-114"/>
      <use x="223.095703" xlink:href="#DejaVuSans-97"/>
      <use x="284.375" xlink:href="#DejaVuSans-103"/>
      <use x="347.851562" xlink:href="#DejaVuSans-101"/>
     </g>
    </g>
    <g id="line2d_33">
     <path d="M 66.6 69.248563 
L 86.6 69.248563 
" style="fill:none;stroke:#008000;stroke-dasharray:9.6,2.4,1.5,2.4;stroke-dashoffset:0;stroke-width:1.5;"/>
    </g>
    <g id="line2d_34"/>
    <g id="text_18">
     <!-- -1 sd -->
     <defs>
      <path d="M 4.890625 31.390625 
L 31.203125 31.390625 
L 31.203125 23.390625 
L 4.890625 23.390625 
z
" id="DejaVuSans-45"/>
     </defs>
     <g transform="translate(94.6 72.748563)scale(0.1 -0.1)">
      <use xlink:href="#DejaVuSans-45"/>
      <use x="36.083984" xlink:href="#DejaVuSans-49"/>
      <use x="99.707031" xlink:href="#DejaVuSans-32"/>
      <use x="131.494141" xlink:href="#DejaVuSans-115"/>
      <use x="183.59375" xlink:href="#DejaVuSans-100"/>
     </g>
    </g>
    <g id="line2d_35">
     <path d="M 66.6 83.926688 
L 86.6 83.926688 
" style="fill:none;stroke:#008000;stroke-dasharray:9.6,2.4,1.5,2.4;stroke-dashoffset:0;stroke-width:1.5;"/>
    </g>
    <g id="line2d_36"/>
    <g id="text_19">
     <!-- +1 sd -->
     <defs>
      <path d="M 46 62.703125 
L 46 35.5 
L 73.1875 35.5 
L 73.1875 27.203125 
L 46 27.203125 
L 46 0 
L 37.796875 0 
L 37.796875 27.203125 
L 10.59375 27.203125 
L 10.59375 35.5 
L 37.796875 35.5 
L 37.796875 62.703125 
z
" id="DejaVuSans-43"/>
     </defs>
     <g transform="translate(94.6 87.426688)scale(0.1 -0.1)">
      <use xlink:href="#DejaVuSans-43"/>
      <use x="83.789062" xlink:href="#DejaVuSans-49"/>
      <use x="147.412109" xlink:href="#DejaVuSans-32"/>
      <use x="179.199219" xlink:href="#DejaVuSans-115"/>
      <use x="231.298828" xlink:href="#DejaVuSans-100"/>
     </g>
    </g>
    <g id="line2d_37">
     <path d="M 66.6 98.604813 
L 86.6 98.604813 
" style="fill:none;stroke:#ff0000;stroke-linecap:square;stroke-width:1.5;"/>
    </g>
    <g id="line2d_38"/>
    <g id="text_20">
     <!-- best -->
     <g transform="translate(94.6 102.104813)scale(0.1 -0.1)">
      <use xlink:href="#DejaVuSans-98"/>
      <use x="63.476562" xlink:href="#DejaVuSans-101"/>
      <use x="125" xlink:href="#DejaVuSans-115"/>
      <use x="177.099609" xlink:href="#DejaVuSans-116"/>
     </g>
    </g>
   </g>
  </g>
 </g>
 <defs>
  <clipPath id="p5d42082057">
   <rect height="266.112" width="357.12" x="57.6" y="41.472"/>
  </clipPath>
 </defs>
</svg>
